<svg width="191" height="50" viewBox="0 0 191 50" fill="none" xmlns="http://www.w3.org/2000/svg">
<path d="M5.5 31H0.234375L8.26562 7.71875H14.6094L22.625 31H17.375L11.5312 13.0312H11.3438L5.5 31ZM5.1875 21.8438H17.6406V25.6875H5.1875V21.8438ZM24.375 31V7.71875H33.5469C35.3073 7.71875 36.8073 8.03125 38.0469 8.65625C39.2969 9.28125 40.25 10.1667 40.9062 11.3125C41.5729 12.4479 41.9062 13.7865 41.9062 15.3281C41.9062 16.8698 41.5729 18.1979 40.9062 19.3125C40.2396 20.4271 39.2708 21.2812 38 21.875C36.7396 22.4583 35.2135 22.75 33.4219 22.75H27.2812V18.7969H32.625C33.5729 18.7969 34.3542 18.6667 34.9688 18.4062C35.5938 18.1458 36.0573 17.7604 36.3594 17.25C36.6719 16.7396 36.8281 16.099 36.8281 15.3281C36.8281 14.5469 36.6719 13.8958 36.3594 13.375C36.0573 12.8438 35.5938 12.4427 34.9688 12.1719C34.3438 11.8906 33.5573 11.75 32.6094 11.75H29.2812V31H24.375ZM37.2969 31L31.625 20.4062H36.9375L42.7344 31H37.2969ZM43.4531 11.7812V7.71875H62.5781V11.7812H55.4531V31H50.5938V11.7812H43.4531Z" fill="#F56C69"/>
<path d="M64.6875 7.71875H70.7656L77.1719 23.3594H77.4375L83.8594 7.71875H89.9531V31H85.1406V15.8438H84.9531L78.9062 30.8906H75.6562L69.6562 15.8125H69.4688V31H64.6875V7.71875ZM92.9688 31V7.71875H108.656V11.7812H97.875V17.25H107.844V21.2344H97.875V26.9375H108.688V31H92.9688ZM111.531 31V7.71875H126.984V11.7812H116.438V16.3125H120.234C122.078 16.3125 123.667 16.6146 125 17.2188C126.344 17.8125 127.38 18.651 128.109 19.7344C128.839 20.8177 129.203 22.0938 129.203 23.5625C129.203 25.0312 128.839 26.3229 128.109 27.4375C127.38 28.5521 126.344 29.4271 125 30.0625C123.667 30.6875 122.078 31 120.234 31H111.531ZM116.438 27.0312H120.234C121.12 27.0312 121.865 26.875 122.469 26.5625C123.073 26.2396 123.531 25.8125 123.844 25.2812C124.156 24.7396 124.312 24.151 124.312 23.5156C124.312 22.5885 123.964 21.8073 123.266 21.1719C122.568 20.5365 121.557 20.2188 120.234 20.2188H116.438V27.0312ZM131.344 31V7.71875H147.031V11.7812H136.25V17.25H146.219V21.2344H136.25V26.9375H147.062V31H131.344ZM148.641 31V27.0312L149.312 26.9844C150.156 26.9115 150.839 26.5885 151.359 26.0156C151.88 25.4427 152.271 24.5208 152.531 23.25C152.792 21.9688 152.964 20.25 153.047 18.0938L153.438 7.71875H169.219V31H164.438V11.6562H158L157.625 19.7812C157.51 22.3854 157.203 24.5156 156.703 26.1719C156.214 27.8177 155.427 29.0365 154.344 29.8281C153.26 30.6094 151.786 31 149.922 31H148.641ZM175.375 16.3125H180.922C182.766 16.3125 184.354 16.6146 185.688 17.2188C187.031 17.8125 188.068 18.651 188.797 19.7344C189.526 20.8177 189.891 22.0938 189.891 23.5625C189.891 25.0312 189.526 26.3229 188.797 27.4375C188.068 28.5521 187.031 29.4271 185.688 30.0625C184.354 30.6875 182.766 31 180.922 31H172.219V7.71875H177.156V27.0312H180.922C181.807 27.0312 182.552 26.875 183.156 26.5625C183.771 26.2396 184.234 25.8125 184.547 25.2812C184.859 24.7396 185.01 24.151 185 23.5156C185.01 22.5885 184.661 21.8073 183.953 21.1719C183.255 20.5365 182.245 20.2188 180.922 20.2188H175.375V16.3125Z" fill="white"/>
<path d="M0.473011 41.9915V41.4545H5.21911V41.9915H3.14489V48H2.54723V41.9915H0.473011ZM6.56463 48V41.4545H10.3615V41.9915H7.16229V44.4556H10.1602V44.9925H7.16229V47.4631H10.4254V48H6.56463ZM11.9084 48V41.4545H14.021C14.4854 41.4545 14.8732 41.544 15.1843 41.723C15.4975 41.8999 15.733 42.1406 15.8906 42.4453C16.0504 42.75 16.1303 43.093 16.1303 43.4744C16.1303 43.8558 16.0515 44.1999 15.8938 44.5067C15.7362 44.8114 15.5018 45.0533 15.1907 45.2322C14.8796 45.4091 14.4929 45.4975 14.0305 45.4975H12.3686V44.9606H14.0146C14.3576 44.9606 14.642 44.8967 14.8679 44.7688C15.0938 44.6388 15.2621 44.462 15.3729 44.2383C15.4858 44.0146 15.5423 43.7599 15.5423 43.4744C15.5423 43.1889 15.4858 42.9343 15.3729 42.7106C15.2621 42.4869 15.0927 42.3111 14.8647 42.1832C14.6388 42.0554 14.3523 41.9915 14.005 41.9915H12.506V48H11.9084ZM17.5334 48V41.4545H19.646C20.1104 41.4545 20.4982 41.544 20.8093 41.723C21.1225 41.8999 21.358 42.1406 21.5156 42.4453C21.6754 42.75 21.7553 43.093 21.7553 43.4744C21.7553 43.8558 21.6765 44.1999 21.5188 44.5067C21.3612 44.8114 21.1268 45.0533 20.8157 45.2322C20.5046 45.4091 20.1179 45.4975 19.6555 45.4975H17.9936V44.9606H19.6396C19.9826 44.9606 20.267 44.8967 20.4929 44.7688C20.7188 44.6388 20.8871 44.462 20.9979 44.2383C21.1108 44.0146 21.1673 43.7599 21.1673 43.4744C21.1673 43.1889 21.1108 42.9343 20.9979 42.7106C20.8871 42.4869 20.7177 42.3111 20.4897 42.1832C20.2638 42.0554 19.9773 41.9915 19.63 41.9915H18.131V48H17.5334ZM23.1584 41.4545H23.7464V46.9421H23.7976L27.6744 41.4545H28.256V48H27.6584V42.5188H27.6072L23.7369 48H23.1584V41.4545ZM29.6 41.9915V41.4545H34.3461V41.9915H32.2718V48H31.6742V41.9915H29.6ZM40.7852 44.7273C40.7852 45.4091 40.6638 46.0025 40.4209 46.5075C40.178 47.0103 39.8435 47.4002 39.4173 47.6772C38.9933 47.9521 38.5054 48.0895 37.9536 48.0895C37.4017 48.0895 36.9127 47.9521 36.4866 47.6772C36.0626 47.4002 35.7291 47.0103 35.4862 46.5075C35.2455 46.0025 35.1251 45.4091 35.1251 44.7273C35.1251 44.0455 35.2455 43.4531 35.4862 42.9503C35.7291 42.4453 36.0637 42.0554 36.4898 41.7805C36.9159 41.5036 37.4039 41.3651 37.9536 41.3651C38.5054 41.3651 38.9933 41.5036 39.4173 41.7805C39.8435 42.0554 40.178 42.4453 40.4209 42.9503C40.6638 43.4531 40.7852 44.0455 40.7852 44.7273ZM40.2036 44.7273C40.2036 44.1413 40.1056 43.6396 39.9095 43.2219C39.7135 42.8022 39.4461 42.4815 39.1073 42.2599C38.7686 42.0384 38.384 41.9276 37.9536 41.9276C37.5253 41.9276 37.1418 42.0384 36.803 42.2599C36.4642 42.4815 36.1958 42.8011 35.9976 43.2188C35.8016 43.6364 35.7036 44.1392 35.7036 44.7273C35.7036 45.3132 35.8016 45.815 35.9976 46.2326C36.1936 46.6502 36.461 46.9709 36.7998 47.1946C37.1386 47.4162 37.5232 47.527 37.9536 47.527C38.384 47.527 38.7686 47.4162 39.1073 47.1946C39.4482 46.973 39.7167 46.6534 39.9127 46.2358C40.1088 45.8161 40.2057 45.3132 40.2036 44.7273ZM42.2306 48V41.4545H44.3432C44.8077 41.4545 45.1955 41.544 45.5066 41.723C45.8198 41.8999 46.0552 42.1406 46.2129 42.4453C46.3727 42.75 46.4526 43.093 46.4526 43.4744C46.4526 43.8558 46.3738 44.1999 46.2161 44.5067C46.0584 44.8114 45.824 45.0533 45.513 45.2322C45.2019 45.4091 44.8152 45.4975 44.3528 45.4975H42.6909V44.9606H44.3368C44.6799 44.9606 44.9643 44.8967 45.1902 44.7688C45.416 44.6388 45.5843 44.462 45.6951 44.2383C45.8081 44.0146 45.8645 43.7599 45.8645 43.4744C45.8645 43.1889 45.8081 42.9343 45.6951 42.7106C45.5843 42.4869 45.415 42.3111 45.187 42.1832C44.9611 42.0554 44.6745 41.9915 44.3272 41.9915H42.8283V48H42.2306ZM47.8556 41.4545H48.4437V46.9421H48.4949L52.3716 41.4545H52.9533V48H52.3556V42.5188H52.3045L48.4341 48H47.8556V41.4545ZM58.9123 48H58.3146V41.9915H56.8157C56.4705 41.9915 56.1839 42.0501 55.956 42.1673C55.7301 42.2844 55.5607 42.4506 55.4478 42.6658C55.3349 42.8789 55.2784 43.1282 55.2784 43.4137C55.2784 43.6992 55.3338 43.9464 55.4446 44.1552C55.5575 44.364 55.7269 44.5249 55.9528 44.6378C56.1808 44.7507 56.4652 44.8072 56.8061 44.8072H58.5895V45.3537H56.7901C56.3299 45.3537 55.9442 45.2717 55.6332 45.1076C55.3221 44.9435 55.0866 44.7156 54.9268 44.4237C54.7692 44.1317 54.6903 43.7951 54.6903 43.4137C54.6903 43.0323 54.7692 42.6946 54.9268 42.4006C55.0866 42.1044 55.3221 41.8732 55.6332 41.707C55.9464 41.5387 56.3352 41.4545 56.7997 41.4545H58.9123V48ZM56.0263 45.0469H56.7006L55.1058 48H54.4155L56.0263 45.0469ZM63.1838 48V41.4545H63.7814V44.4556H67.4952V41.4545H68.0929V48H67.4952V44.9925H63.7814V48H63.1838ZM69.8283 48V41.4545H73.6252V41.9915H70.426V44.4556H73.4238V44.9925H70.426V47.4631H73.6891V48H69.8283ZM80.2985 43.5H79.6976C79.6529 43.2763 79.5719 43.0696 79.4547 42.88C79.3397 42.6882 79.1948 42.521 79.0201 42.3782C78.8453 42.2354 78.6472 42.1246 78.4256 42.0458C78.204 41.967 77.9643 41.9276 77.7065 41.9276C77.2931 41.9276 76.916 42.0352 76.5751 42.2504C76.2363 42.4656 75.9647 42.782 75.7601 43.1996C75.5577 43.6151 75.4565 44.1243 75.4565 44.7273C75.4565 45.3345 75.5577 45.8459 75.7601 46.2614C75.9647 46.6768 76.2363 46.9922 76.5751 47.2074C76.916 47.4205 77.2931 47.527 77.7065 47.527C77.9643 47.527 78.204 47.4876 78.4256 47.4087C78.6472 47.3299 78.8453 47.2202 79.0201 47.0795C79.1948 46.9368 79.3397 46.7695 79.4547 46.5778C79.5719 46.386 79.6529 46.1783 79.6976 45.9545H80.2985C80.2452 46.255 80.1451 46.5352 79.998 46.7951C79.8532 47.0529 79.6678 47.2788 79.4419 47.4727C79.2182 47.6665 78.9604 47.8178 78.6685 47.9265C78.3766 48.0352 78.0559 48.0895 77.7065 48.0895C77.1568 48.0895 76.6689 47.9521 76.2427 47.6772C75.8166 47.4002 75.4821 47.0103 75.2392 46.5075C74.9984 46.0046 74.878 45.4112 74.878 44.7273C74.878 44.0433 74.9984 43.4499 75.2392 42.9471C75.4821 42.4442 75.8166 42.0554 76.2427 41.7805C76.6689 41.5036 77.1568 41.3651 77.7065 41.3651C78.0559 41.3651 78.3766 41.4194 78.6685 41.5281C78.9604 41.6346 79.2182 41.7859 79.4419 41.9819C79.6678 42.1758 79.8532 42.4016 79.998 42.6594C80.1451 42.9173 80.2452 43.1974 80.2985 43.5ZM81.306 41.9915V41.4545H86.0521V41.9915H83.9779V48H83.3802V41.9915H81.306ZM86.6426 48H86.0162L88.3972 41.4545H89.0364L91.4174 48H90.791L88.7392 42.2312H88.6944L86.6426 48ZM87.0932 45.4911H90.3404V46.0281H87.0932V45.4911ZM92.5392 48V41.4545H93.1369V44.4556H96.8507V41.4545H97.4483V48H96.8507V44.9925H93.1369V48H92.5392ZM98.5669 49.5884V47.4631H98.9824C99.1337 47.3054 99.2733 47.0977 99.4011 46.8398C99.5289 46.5799 99.6355 46.2454 99.7207 45.8363C99.8081 45.4251 99.8645 44.9116 99.8901 44.2958L100.021 41.4545H103.764V47.4631H104.531V49.5724H103.962V48H99.1358V49.5884H98.5669ZM99.6983 47.4631H103.195V41.9915H100.564L100.462 44.2958C100.439 44.7965 100.395 45.2429 100.331 45.6349C100.267 46.0249 100.182 46.3711 100.075 46.6737C99.9711 46.9741 99.8453 47.2372 99.6983 47.4631ZM105.829 48H105.203L107.584 41.4545H108.223L110.604 48H109.978L107.926 42.2312H107.881L105.829 48ZM106.28 45.4911H109.527V46.0281H106.28V45.4911ZM111.726 48V41.4545H113.838C114.303 41.4545 114.691 41.544 115.002 41.723C115.315 41.8999 115.55 42.1406 115.708 42.4453C115.868 42.75 115.948 43.093 115.948 43.4744C115.948 43.8558 115.869 44.1999 115.711 44.5067C115.554 44.8114 115.319 45.0533 115.008 45.2322C114.697 45.4091 114.31 45.4975 113.848 45.4975H112.186V44.9606H113.832C114.175 44.9606 114.459 44.8967 114.685 44.7688C114.911 44.6388 115.079 44.462 115.19 44.2383C115.303 44.0146 115.36 43.7599 115.36 43.4744C115.36 43.1889 115.303 42.9343 115.19 42.7106C115.079 42.4869 114.91 42.3111 114.682 42.1832C114.456 42.0554 114.17 41.9915 113.822 41.9915H112.323V48H111.726ZM116.954 41.9915V41.4545H121.701V41.9915H119.626V48H119.029V41.9915H116.954ZM123.046 48V41.4545H123.644V44.4556H127.358V41.4545H127.955V48H127.358V44.9925H123.644V48H123.046ZM130.122 44.331H132.145C132.582 44.331 132.953 44.4045 133.257 44.5515C133.564 44.6985 133.799 44.9062 133.96 45.1747C134.122 45.4411 134.203 45.7564 134.203 46.1207C134.203 46.4957 134.122 46.8239 133.96 47.1051C133.801 47.3864 133.567 47.6058 133.261 47.7635C132.956 47.9212 132.584 48 132.145 48H129.691V41.4545H130.288V47.4727H132.145C132.458 47.4727 132.724 47.4119 132.941 47.2905C133.16 47.1669 133.328 47.0028 133.443 46.7983C133.558 46.5916 133.615 46.3615 133.615 46.108C133.615 45.7564 133.485 45.4624 133.225 45.2259C132.968 44.9872 132.608 44.8679 132.145 44.8679H130.122V44.331ZM135.571 41.4545V48H134.974V41.4545H135.571ZM137.413 41.4545L139.225 44.2958H139.267L141.079 41.4545H141.785L139.679 44.7273L141.785 48H141.079L139.267 45.1907H139.225L137.413 48H136.707L138.845 44.7273L136.707 41.4545H137.413ZM145.449 48V41.4545H147.562C148.026 41.4545 148.414 41.544 148.725 41.723C149.039 41.8999 149.274 42.1406 149.432 42.4453C149.591 42.75 149.671 43.093 149.671 43.4744C149.671 43.8558 149.593 44.1999 149.435 44.5067C149.277 44.8114 149.043 45.0533 148.732 45.2322C148.421 45.4091 148.034 45.4975 147.572 45.4975H145.91V44.9606H147.556C147.899 44.9606 148.183 44.8967 148.409 44.7688C148.635 44.6388 148.803 44.462 148.914 44.2383C149.027 44.0146 149.083 43.7599 149.083 43.4744C149.083 43.1889 149.027 42.9343 148.914 42.7106C148.803 42.4869 148.634 42.3111 148.406 42.1832C148.18 42.0554 147.893 41.9915 147.546 41.9915H146.047V48H145.449ZM151.074 48V41.4545H154.871V41.9915H151.672V44.4556H154.67V44.9925H151.672V47.4631H154.935V48H151.074ZM156.418 41.4545H157.016V47.4471H159.47V41.4545H160.068V47.4471H162.526V41.4545H163.12V48H156.418V41.4545ZM164.856 48V41.4545H168.653V41.9915H165.453V44.4556H168.451V44.9925H165.453V47.4631H168.716V48H164.856ZM170.199 48V41.4545H170.797V44.4556H174.511V41.4545H175.108V48H174.511V44.9925H170.797V48H170.199ZM176.844 41.4545H177.432V46.9421H177.483L181.36 41.4545H181.942V48H181.344V42.5188H181.293L177.422 48H176.844V41.4545ZM183.682 41.4545H184.27V46.9421H184.321L188.198 41.4545H188.779V48H188.182V42.5188H188.131L184.26 48H183.682V41.4545ZM186.817 39.8182H187.354C187.354 40.1229 187.253 40.37 187.05 40.5597C186.85 40.7493 186.576 40.8441 186.229 40.8441C185.886 40.8441 185.614 40.7493 185.414 40.5597C185.214 40.37 185.114 40.1229 185.114 39.8182H185.651C185.651 39.9844 185.695 40.125 185.785 40.2401C185.876 40.353 186.025 40.4094 186.229 40.4094C186.434 40.4094 186.583 40.353 186.676 40.2401C186.77 40.125 186.817 39.9844 186.817 39.8182Z" fill="white"/>
</svg>
