<svg width="191" height="50" fill="none" xmlns="http://www.w3.org/2000/svg"><path d="M5.5 31H.234L8.266 7.719h6.343L22.625 31h-5.25l-5.844-17.969h-.187L5.5 31Zm-.313-9.156h12.454v3.843H5.188v-3.843ZM24.375 31V7.719h9.172c1.76 0 3.26.312 4.5.937 1.25.625 2.203 1.51 2.86 2.656.666 1.136 1 2.475 1 4.016 0 1.542-.334 2.87-1 3.985-.667 1.114-1.636 1.968-2.907 2.562-1.26.583-2.786.875-4.578.875h-6.14v-3.953h5.343c.948 0 1.73-.13 2.344-.39.625-.261 1.088-.647 1.39-1.157.313-.51.47-1.151.47-1.922 0-.781-.157-1.432-.47-1.953-.302-.531-.765-.932-1.39-1.203-.625-.281-1.412-.422-2.36-.422h-3.328V31h-4.906Zm12.922 0-5.672-10.594h5.313L42.733 31h-5.437Zm6.156-19.219V7.72h19.125v4.062h-7.125V31h-4.86V11.781h-7.14Z" fill="#F56C69"/><path d="M64.688 7.719h6.078l6.406 15.64h.266l6.421-15.64h6.094V31h-4.812V15.844h-.188L78.906 30.89h-3.25l-6-15.078h-.187V31h-4.781V7.719ZM92.968 31V7.719h15.688v4.062H97.875v5.469h9.969v3.984h-9.969v5.703h10.813V31h-15.72Zm18.563 0V7.719h15.453v4.062h-10.546v4.531h3.796c1.844 0 3.433.303 4.766.907 1.344.593 2.38 1.432 3.109 2.515.73 1.084 1.094 2.36 1.094 3.828 0 1.47-.364 2.76-1.094 3.875-.729 1.115-1.765 1.99-3.109 2.625-1.333.625-2.922.938-4.766.938h-8.703Zm4.907-3.969h3.796c.886 0 1.631-.156 2.235-.468.604-.323 1.062-.75 1.375-1.282.312-.541.468-1.13.468-1.765 0-.927-.348-1.709-1.046-2.344-.698-.636-1.709-.953-3.032-.953h-3.796v6.812ZM131.344 31V7.719h15.687v4.062H136.25v5.469h9.969v3.984h-9.969v5.703h10.812V31h-15.718Zm17.297 0v-3.969l.671-.047c.844-.073 1.527-.396 2.047-.968.521-.573.912-1.495 1.172-2.766.261-1.281.433-3 .516-5.156l.391-10.375h15.781V31h-4.781V11.656H158l-.375 8.125c-.115 2.604-.422 4.735-.922 6.39-.489 1.647-1.276 2.866-2.359 3.657-1.084.781-2.558 1.172-4.422 1.172h-1.281Zm26.734-14.688h5.547c1.844 0 3.432.303 4.766.907 1.343.593 2.38 1.432 3.109 2.515.729 1.084 1.094 2.36 1.094 3.828 0 1.47-.365 2.76-1.094 3.875-.729 1.115-1.766 1.99-3.109 2.625-1.334.625-2.922.938-4.766.938h-8.703V7.719h4.937V27.03h3.766c.885 0 1.63-.156 2.234-.468.615-.323 1.078-.75 1.391-1.282.312-.541.463-1.13.453-1.765.01-.927-.339-1.709-1.047-2.344-.698-.636-1.708-.953-3.031-.953h-5.547v-3.907ZM.473 41.992v-.537h4.746v.537H3.145V48h-.598v-6.008H.473ZM6.565 48v-6.545h3.796v.537H7.162v2.464h2.998v.536H7.162v2.471h3.263V48h-3.86Zm5.343 0v-6.545h2.113c.464 0 .852.089 1.163.268.314.177.549.418.707.722.16.305.24.648.24 1.03 0 .38-.08.725-.237 1.032a1.757 1.757 0 0 1-.703.725c-.311.177-.698.266-1.16.266h-1.662v-.537h1.646c.343 0 .627-.064.853-.192.226-.13.394-.307.505-.53.113-.224.17-.48.17-.765 0-.285-.057-.54-.17-.763-.11-.224-.28-.4-.508-.528-.226-.128-.513-.191-.86-.191h-1.499V48h-.598Zm5.625 0v-6.545h2.113c.464 0 .852.089 1.163.268.313.177.549.418.707.722.16.305.24.648.24 1.03 0 .38-.08.725-.237 1.032a1.757 1.757 0 0 1-.703.725c-.311.177-.698.266-1.16.266h-1.662v-.537h1.646c.343 0 .627-.064.853-.192.226-.13.394-.307.505-.53.113-.224.17-.48.17-.765 0-.285-.057-.54-.17-.763-.11-.224-.28-.4-.508-.528-.226-.128-.513-.191-.86-.191h-1.499V48h-.598Zm5.625-6.545h.588v5.487h.052l3.876-5.487h.582V48h-.598v-5.481h-.05L23.736 48h-.579v-6.545Zm6.442.537v-.537h4.746v.537h-2.074V48h-.598v-6.008H29.6Zm11.185 2.735c0 .682-.121 1.276-.364 1.78a2.82 2.82 0 0 1-1.004 1.17 2.63 2.63 0 0 1-1.463.413c-.552 0-1.041-.138-1.467-.413a2.828 2.828 0 0 1-1-1.17c-.242-.505-.362-1.098-.362-1.78 0-.681.12-1.274.361-1.777.243-.505.578-.895 1.004-1.17a2.627 2.627 0 0 1 1.464-.415c.551 0 1.04.139 1.463.416.426.274.761.664 1.004 1.17.243.502.364 1.094.364 1.776Zm-.581 0c0-.586-.098-1.087-.294-1.505-.196-.42-.464-.74-.803-.962a2.061 2.061 0 0 0-1.153-.332c-.429 0-.812.11-1.151.332-.339.221-.607.541-.805.959-.196.417-.294.92-.294 1.508 0 .586.098 1.088.294 1.506.196.417.463.738.802.962a2.06 2.06 0 0 0 1.154.332c.43 0 .815-.11 1.153-.332.341-.222.61-.542.806-.96.196-.419.293-.922.29-1.508ZM42.23 48v-6.545h2.112c.465 0 .852.089 1.164.268.313.177.548.418.706.722.16.305.24.648.24 1.03 0 .38-.08.725-.237 1.032a1.758 1.758 0 0 1-.703.725c-.311.177-.698.266-1.16.266H42.69v-.537h1.646c.343 0 .627-.064.853-.192.226-.13.394-.307.505-.53.113-.224.17-.48.17-.765 0-.285-.057-.54-.17-.763-.11-.224-.28-.4-.508-.528-.226-.128-.512-.191-.86-.191h-1.499V48h-.597Zm5.625-6.545h.588v5.487h.05l3.878-5.487h.581V48h-.597v-5.481h-.052L48.434 48h-.578v-6.545ZM58.912 48h-.597v-6.008h-1.5c-.344 0-.631.058-.859.175a1.16 1.16 0 0 0-.508.499c-.113.213-.17.462-.17.748 0 .285.056.532.167.741.112.209.282.37.508.483.228.113.512.17.853.17h1.784v.546h-1.8c-.46 0-.846-.082-1.157-.246a1.672 1.672 0 0 1-.706-.684 2.093 2.093 0 0 1-.237-1.01c0-.382.08-.72.237-1.013a1.68 1.68 0 0 1 .706-.694c.313-.168.702-.252 1.167-.252h2.112V48Zm-2.886-2.953h.675L55.106 48h-.69l1.61-2.953ZM63.184 48v-6.545h.597v3h3.714v-3h.598V48h-.598v-3.008h-3.714V48h-.597Zm6.644 0v-6.545h3.797v.537h-3.199v2.464h2.998v.536h-2.998v2.471h3.263V48h-3.86Zm10.47-4.5h-.6a1.864 1.864 0 0 0-.243-.62 1.917 1.917 0 0 0-.435-.502 1.98 1.98 0 0 0-.594-.332 2.131 2.131 0 0 0-.72-.118c-.413 0-.79.107-1.13.322-.34.216-.611.532-.816.95-.202.415-.303.924-.303 1.527 0 .608.1 1.119.303 1.534.205.416.476.731.815.946.341.213.718.32 1.132.32.257 0 .497-.04.719-.118a1.917 1.917 0 0 0 1.03-.83c.116-.193.197-.4.242-.624h.6c-.053.3-.153.58-.3.84a2.5 2.5 0 0 1-.556.678 2.504 2.504 0 0 1-.773.453 2.737 2.737 0 0 1-.962.163 2.64 2.64 0 0 1-1.464-.412 2.82 2.82 0 0 1-1.004-1.17c-.24-.502-.361-1.096-.361-1.78 0-.684.12-1.277.361-1.78a2.797 2.797 0 0 1 1.004-1.166 2.627 2.627 0 0 1 1.464-.416c.349 0 .67.054.962.163.291.107.55.258.773.454a2.589 2.589 0 0 1 .857 1.518Zm1.008-1.508v-.537h4.746v.537h-2.074V48h-.598v-6.008h-2.074ZM86.643 48h-.627l2.381-6.545h.64L91.416 48h-.626l-2.052-5.769h-.045L86.643 48Zm.45-2.509h3.247v.537h-3.247v-.537ZM92.54 48v-6.545h.598v3h3.714v-3h.597V48h-.597v-3.008h-3.714V48h-.598Zm6.028 1.588v-2.125h.415c.152-.158.291-.365.42-.623.127-.26.233-.595.319-1.004.087-.41.144-.924.17-1.54l.13-2.841h3.743v6.008h.767v2.11h-.569V48h-4.826v1.588h-.57Zm1.131-2.125h3.497v-5.471h-2.631l-.102 2.304c-.023.5-.067.947-.131 1.339-.064.39-.149.736-.256 1.039a3.6 3.6 0 0 1-.377.79Zm6.131.537h-.626l2.381-6.545h.639L110.604 48h-.626l-2.052-5.769h-.045L105.829 48Zm.451-2.509h3.247v.537h-3.247v-.537ZM111.726 48v-6.545h2.112c.465 0 .853.089 1.164.268.313.177.548.418.706.722.16.305.24.648.24 1.03 0 .38-.079.725-.237 1.032a1.754 1.754 0 0 1-.703.725c-.311.177-.698.266-1.16.266h-1.662v-.537h1.646c.343 0 .627-.064.853-.192.226-.13.394-.307.505-.53.113-.224.17-.48.17-.765 0-.285-.057-.54-.17-.763-.111-.224-.28-.4-.508-.528-.226-.128-.512-.191-.86-.191h-1.499V48h-.597Zm5.228-6.008v-.537h4.747v.537h-2.075V48h-.597v-6.008h-2.075ZM123.046 48v-6.545h.598v3h3.714v-3h.597V48h-.597v-3.008h-3.714V48h-.598Zm7.076-3.669h2.023c.437 0 .808.073 1.112.22.307.148.542.355.703.624.162.266.243.581.243.946 0 .375-.081.703-.243.984-.159.281-.393.5-.699.659-.305.157-.677.236-1.116.236h-2.454v-6.545h.597v6.018h1.857c.313 0 .579-.061.796-.182.219-.124.387-.288.502-.493.115-.206.172-.437.172-.69 0-.352-.13-.646-.39-.882-.257-.239-.617-.358-1.08-.358h-2.023v-.537Zm5.449-2.877V48h-.597v-6.545h.597Zm1.842 0 1.812 2.842h.042l1.812-2.841h.706l-2.106 3.272L141.785 48h-.706l-1.812-2.81h-.042L137.413 48h-.706l2.138-3.273-2.138-3.272h.706ZM145.449 48v-6.545h2.113c.464 0 .852.089 1.163.268.314.177.549.418.707.722.159.305.239.648.239 1.03 0 .38-.078.725-.236 1.032a1.76 1.76 0 0 1-.703.725c-.311.177-.698.266-1.16.266h-1.662v-.537h1.646c.343 0 .627-.064.853-.192.226-.13.394-.307.505-.53.113-.224.169-.48.169-.765 0-.285-.056-.54-.169-.763-.111-.224-.28-.4-.508-.528-.226-.128-.513-.191-.86-.191h-1.499V48h-.598Zm5.625 0v-6.545h3.797v.537h-3.199v2.464h2.998v.536h-2.998v2.471h3.263V48h-3.861Zm5.344-6.545h.598v5.992h2.454v-5.992h.598v5.992h2.458v-5.992h.594V48h-6.702v-6.545ZM164.856 48v-6.545h3.797v.537h-3.2v2.464h2.998v.536h-2.998v2.471h3.263V48h-3.86Zm5.343 0v-6.545h.598v3h3.714v-3h.597V48h-.597v-3.008h-3.714V48h-.598Zm6.645-6.545h.588v5.487h.051l3.877-5.487h.582V48h-.598v-5.481h-.051L177.422 48h-.578v-6.545Zm6.838 0h.588v5.487h.051l3.877-5.487h.581V48h-.597v-5.481h-.051L184.26 48h-.578v-6.545Zm3.135-1.637h.537c0 .305-.101.552-.304.742-.2.19-.474.284-.821.284-.343 0-.615-.095-.815-.284-.2-.19-.3-.437-.3-.742h.537c0 .166.044.307.134.422.091.113.24.17.444.17.205 0 .354-.057.447-.17a.645.645 0 0 0 .141-.422Z" fill="#fff"/></svg>