<svg width="48" height="48" viewBox="0 0 48 48" fill="none" xmlns="http://www.w3.org/2000/svg">
<path opacity="0.2" d="M38.25 31.5C39.0281 31.5007 39.7966 31.3284 40.5 30.9956V39C40.5 39.3978 40.3419 39.7794 40.0606 40.0607C39.7793 40.342 39.3978 40.5 39 40.5H12C11.6022 40.5 11.2206 40.342 10.9393 40.0607C10.658 39.7794 10.5 39.3978 10.5 39V30.9956C9.69978 31.3742 8.81684 31.5443 7.93326 31.4902C7.04968 31.436 6.19415 31.1592 5.44622 30.6857C4.69828 30.2121 4.08224 29.5572 3.65536 28.7816C3.22848 28.0061 3.00464 27.1352 3.00464 26.25C3.00464 25.3648 3.22848 24.4939 3.65536 23.7184C4.08224 22.9429 4.69828 22.2879 5.44622 21.8143C6.19415 21.3408 7.04968 21.064 7.93326 21.0098C8.81684 20.9557 9.69978 21.1258 10.5 21.5044V13.5C10.5 13.1022 10.658 12.7206 10.9393 12.4393C11.2206 12.158 11.6022 12 12 12H20.7544C20.3753 11.1998 20.2049 10.3167 20.2588 9.43295C20.3127 8.54917 20.5893 7.69338 21.0628 6.94519C21.5363 6.197 22.1913 5.58072 22.9669 5.15367C23.7426 4.72662 24.6136 4.50269 25.499 4.50269C26.3845 4.50269 27.2555 4.72662 28.0311 5.15367C28.8068 5.58072 29.4618 6.197 29.9353 6.94519C30.4088 7.69338 30.6854 8.54917 30.7393 9.43295C30.7932 10.3167 30.6227 11.1998 30.2437 12H39C39.3978 12 39.7793 12.158 40.0606 12.4393C40.3419 12.7206 40.5 13.1022 40.5 13.5V21.5044C39.7886 21.1678 39.0106 20.9955 38.2237 21.0001C37.4367 21.0047 36.6608 21.1863 35.9535 21.5312C35.2461 21.8762 34.6253 22.3757 34.1371 22.993C33.6489 23.6102 33.3056 24.3293 33.1328 25.0971C32.96 25.8649 32.962 26.6617 33.1386 27.4286C33.3153 28.1955 33.6621 28.9129 34.1535 29.5276C34.6448 30.1424 35.2681 30.6389 35.9771 30.9803C36.6862 31.3217 37.463 31.4993 38.25 31.5Z" fill="#BD0300"/>
<path d="M41.3006 29.7262C41.0868 29.5913 40.8422 29.5127 40.5898 29.4976C40.3374 29.4825 40.0853 29.5315 39.8569 29.64C39.2853 29.9103 38.6547 30.0317 38.0236 29.9929C37.3925 29.9541 36.7815 29.7564 36.2473 29.4181C35.7132 29.0799 35.2732 28.612 34.9684 28.0581C34.6635 27.5042 34.5036 26.8822 34.5036 26.25C34.5036 25.6177 34.6635 24.9957 34.9684 24.4418C35.2732 23.8879 35.7132 23.42 36.2473 23.0818C36.7815 22.7435 37.3925 22.5458 38.0236 22.507C38.6547 22.4682 39.2853 22.5896 39.8569 22.86C40.0855 22.9685 40.338 23.0174 40.5906 23.0021C40.8433 22.9868 41.088 22.9078 41.3019 22.7725C41.5158 22.6372 41.692 22.4499 41.814 22.2282C41.9361 22.0065 42.0001 21.7575 42 21.5043V13.5C42 12.7043 41.6839 11.9412 41.1213 11.3786C40.5587 10.816 39.7957 10.5 39 10.5H32.2087C32.2367 10.2509 32.2504 10.0005 32.25 9.74996C32.2484 8.82782 32.0587 7.91569 31.6925 7.0694C31.3262 6.22311 30.7912 5.46044 30.12 4.82808C29.1904 3.95504 28.0325 3.3632 26.7803 3.12113C25.5282 2.87906 24.2331 2.99665 23.0451 3.46029C21.8571 3.92393 20.8247 4.71465 20.0675 5.74085C19.3104 6.76706 18.8594 7.98677 18.7669 9.25871C18.7381 9.6724 18.7468 10.0879 18.7931 10.5H12C11.2043 10.5 10.4413 10.816 9.87868 11.3786C9.31607 11.9412 9 12.7043 9 13.5V19.5412C8.75098 19.5133 8.50058 19.4995 8.25 19.5C7.32812 19.5014 6.41626 19.6911 5.57026 20.0574C4.72426 20.4236 3.96194 20.9588 3.33 21.63C2.69353 22.3023 2.20344 23.0993 1.89071 23.9707C1.57798 24.8421 1.44941 25.7689 1.51312 26.6925C1.62061 28.3188 2.31164 29.8516 3.45913 31.0091C4.60662 32.1666 6.13342 32.8709 7.75875 32.9925C8.17244 33.0213 8.58789 33.0125 9 32.9662V39C9 39.7956 9.31607 40.5587 9.87868 41.1213C10.4413 41.6839 11.2043 42 12 42H39C39.7957 42 40.5587 41.6839 41.1213 41.1213C41.6839 40.5587 42 39.7956 42 39V30.9956C42.0002 30.7421 41.9361 30.4928 41.8138 30.2708C41.6915 30.0488 41.5149 29.8615 41.3006 29.7262ZM39 39H12V30.9956C12.0001 30.7425 11.9361 30.4934 11.814 30.2717C11.692 30.05 11.5158 29.8627 11.3019 29.7274C11.0879 29.5921 10.8433 29.5131 10.5906 29.4978C10.338 29.4825 10.0855 29.5314 9.85687 29.64C9.28531 29.9103 8.65468 30.0317 8.0236 29.9929C7.39253 29.9541 6.78151 29.7564 6.24735 29.4181C5.71318 29.0799 5.27322 28.612 4.96835 28.0581C4.66349 27.5042 4.50363 26.8822 4.50363 26.25C4.50363 25.6177 4.66349 24.9957 4.96835 24.4418C5.27322 23.8879 5.71318 23.42 6.24735 23.0818C6.78151 22.7435 7.39253 22.5458 8.0236 22.507C8.65468 22.4682 9.28531 22.5896 9.85687 22.86C10.0855 22.9685 10.338 23.0174 10.5906 23.0021C10.8433 22.9868 11.0879 22.9078 11.3019 22.7725C11.5158 22.6372 11.692 22.4499 11.814 22.2282C11.9361 22.0065 12.0001 21.7575 12 21.5043V13.5H20.7544C21.0075 13.5 21.2565 13.4361 21.4783 13.314C21.7 13.1919 21.8872 13.0157 22.0225 12.8018C22.1579 12.5879 22.2368 12.3432 22.2521 12.0906C22.2674 11.8379 22.2185 11.5855 22.11 11.3568C21.8397 10.7853 21.7183 10.1546 21.7571 9.52356C21.7958 8.89249 21.9936 8.28147 22.3318 7.74731C22.6701 7.21314 23.1379 6.77318 23.6918 6.46831C24.2457 6.16345 24.8677 6.00359 25.5 6.00359C26.1323 6.00359 26.7543 6.16345 27.3082 6.46831C27.8621 6.77318 28.3299 7.21314 28.6682 7.74731C29.0064 8.28147 29.2042 8.89249 29.2429 9.52356C29.2817 10.1546 29.1603 10.7853 28.89 11.3568C28.7815 11.5855 28.7326 11.8379 28.7479 12.0906C28.7632 12.3432 28.8421 12.5879 28.9775 12.8018C29.1128 13.0157 29.3 13.1919 29.5217 13.314C29.7435 13.4361 29.9925 13.5 30.2456 13.5H39V19.5431C38.588 19.4959 38.1724 19.4871 37.7588 19.5168C36.013 19.6405 34.3834 20.4373 33.2139 21.7393C32.0444 23.0414 31.4263 24.7467 31.49 26.4957C31.5537 28.2447 32.2943 29.9006 33.5555 31.1141C34.8166 32.3275 36.4998 33.0037 38.25 33C38.5006 33.0004 38.751 32.9866 39 32.9587V39Z" fill="#BD0300"/>
</svg>
