<svg width="48" height="48" viewBox="0 0 48 48" fill="none" xmlns="http://www.w3.org/2000/svg">
<path opacity="0.2" d="M39 19.5C39.002 21.7728 38.4866 24.0162 37.4928 26.0603C36.4991 28.1043 35.0531 29.8953 33.2644 31.2975C32.7181 31.7209 32.2754 32.263 31.9697 32.8828C31.664 33.5026 31.5034 34.1839 31.5 34.875V36C31.5 36.3978 31.342 36.7794 31.0606 37.0607C30.7793 37.342 30.3978 37.5 30 37.5H18C17.6022 37.5 17.2206 37.342 16.9393 37.0607C16.658 36.7794 16.5 36.3978 16.5 36V34.875C16.4993 34.1877 16.3418 33.5096 16.0397 32.8923C15.7375 32.275 15.2986 31.7347 14.7562 31.3125C12.9731 29.9195 11.5287 28.1405 10.5318 26.1092C9.53478 24.0779 9.01108 21.8471 8.99999 19.5844C8.95499 11.4544 15.51 4.6875 23.6381 4.5C25.6382 4.45174 27.6277 4.80406 29.4896 5.53624C31.3514 6.26843 33.048 7.36567 34.4794 8.76338C35.9109 10.1611 37.0482 11.831 37.8246 13.6749C38.6009 15.5188 39.0006 17.4993 39 19.5Z" fill="#BD0300"/>
<path d="M33 43.5C33 43.8978 32.842 44.2794 32.5607 44.5607C32.2794 44.842 31.8978 45 31.5 45H16.5C16.1022 45 15.7206 44.842 15.4393 44.5607C15.158 44.2794 15 43.8978 15 43.5C15 43.1022 15.158 42.7206 15.4393 42.4393C15.7206 42.158 16.1022 42 16.5 42H31.5C31.8978 42 32.2794 42.158 32.5607 42.4393C32.842 42.7206 33 43.1022 33 43.5ZM40.5 19.5C40.5065 22.0006 39.9416 24.4696 38.8484 26.7186C37.7553 28.9676 36.1628 30.9371 34.1925 32.4769C33.8241 32.7593 33.5251 33.1221 33.3184 33.5378C33.1118 33.9534 33.0028 34.4108 33 34.875V36C33 36.7956 32.6839 37.5587 32.1213 38.1213C31.5587 38.6839 30.7957 39 30 39H18C17.2044 39 16.4413 38.6839 15.8787 38.1213C15.3161 37.5587 15 36.7956 15 36V34.875C14.9997 34.4164 14.8942 33.9639 14.6917 33.5524C14.4892 33.1409 14.1951 32.7813 13.8319 32.5012C11.8668 30.9708 10.2755 29.0134 9.1785 26.7772C8.0815 24.541 7.50753 22.0845 7.5 19.5937C7.45125 10.6556 14.6738 3.21562 23.6025 3C25.8025 2.94698 27.9909 3.3346 30.0389 4.14003C32.0869 4.94546 33.9531 6.15244 35.5276 7.68992C37.1021 9.2274 38.3531 11.0643 39.2071 13.0925C40.061 15.1208 40.5006 17.2993 40.5 19.5ZM37.5 19.5C37.5005 17.6994 37.1408 15.9168 36.4421 14.2573C35.7433 12.5978 34.7197 11.0948 33.4313 9.83683C32.1429 8.57888 30.616 7.59138 28.9402 6.93245C27.2645 6.27352 25.4739 5.95648 23.6738 6C16.3613 6.1725 10.4606 12.2606 10.5 19.5731C10.5067 21.6105 10.9768 23.6196 11.8747 25.4485C12.7725 27.2774 14.0747 28.8781 15.6825 30.1294C16.4052 30.6912 16.9898 31.4109 17.3915 32.2335C17.7932 33.056 18.0013 33.9596 18 34.875V36H22.5V27.6206L16.9387 22.0612C16.6573 21.7798 16.4992 21.398 16.4992 21C16.4992 20.602 16.6573 20.2202 16.9387 19.9387C17.2202 19.6573 17.602 19.4992 18 19.4992C18.398 19.4992 18.7798 19.6573 19.0613 19.9387L24 24.8794L28.9387 19.9387C29.0781 19.7994 29.2436 19.6888 29.4257 19.6134C29.6077 19.538 29.8029 19.4992 30 19.4992C30.1971 19.4992 30.3923 19.538 30.5743 19.6134C30.7564 19.6888 30.9219 19.7994 31.0613 19.9387C31.2006 20.0781 31.3112 20.2436 31.3866 20.4257C31.462 20.6077 31.5008 20.8029 31.5008 21C31.5008 21.1971 31.462 21.3923 31.3866 21.5743C31.3112 21.7564 31.2006 21.9219 31.0613 22.0612L25.5 27.6206V36H30V34.875C30.0017 33.9569 30.2132 33.0514 30.6184 32.2276C31.0237 31.4038 31.6119 30.6835 32.3381 30.1219C33.9508 28.8616 35.2542 27.2494 36.1488 25.4086C37.0434 23.5677 37.5056 21.5467 37.5 19.5Z" fill="#BD0300"/>
</svg>
