<svg width="48" height="48" viewBox="0 0 48 48" fill="none" xmlns="http://www.w3.org/2000/svg">
<path opacity="0.2" d="M34.5244 27.6938C34.3188 27.8744 34.1659 28.1073 34.0821 28.3677C33.9982 28.6282 33.9865 28.9065 34.0481 29.1732L36.5831 40.1494C36.6501 40.4361 36.6313 40.7361 36.5289 41.0122C36.4266 41.2882 36.2453 41.528 36.0076 41.7018C35.7699 41.8755 35.4863 41.9754 35.1922 41.9891C34.8982 42.0028 34.6065 41.9297 34.3537 41.7788L24.7725 35.9663C24.5397 35.8247 24.2725 35.7498 24 35.7498C23.7275 35.7498 23.4603 35.8247 23.2275 35.9663L13.6462 41.7788C13.3934 41.9297 13.1018 42.0028 12.8077 41.9891C12.5137 41.9754 12.2301 41.8755 11.9924 41.7018C11.7547 41.528 11.5734 41.2882 11.4711 41.0122C11.3687 40.7361 11.3499 40.4361 11.4169 40.1494L13.9519 29.1732C14.0135 28.9065 14.0017 28.6282 13.9179 28.3677C13.834 28.1073 13.6812 27.8744 13.4756 27.6938L5.01749 20.3157C4.79137 20.1235 4.62733 19.8685 4.54615 19.5831C4.46496 19.2976 4.47027 18.9945 4.5614 18.7121C4.65253 18.4297 4.82539 18.1806 5.0581 17.9964C5.29082 17.8123 5.57293 17.7013 5.86874 17.6775L17.0175 16.7138C17.2895 16.6895 17.5497 16.5915 17.7701 16.4303C17.9905 16.269 18.1627 16.0507 18.2681 15.7988L22.6237 5.41878C22.7401 5.15041 22.9323 4.92191 23.1769 4.76141C23.4214 4.6009 23.7075 4.51538 24 4.51538C24.2925 4.51538 24.5786 4.6009 24.8231 4.76141C25.0676 4.92191 25.2599 5.15041 25.3762 5.41878L29.7319 15.7988C29.8373 16.0507 30.0095 16.269 30.2299 16.4303C30.4503 16.5915 30.7105 16.6895 30.9825 16.7138L42.1312 17.6775C42.4271 17.7013 42.7092 17.8123 42.9419 17.9964C43.1746 18.1806 43.3475 18.4297 43.4386 18.7121C43.5297 18.9945 43.535 19.2976 43.4538 19.5831C43.3727 19.8685 43.2086 20.1235 42.9825 20.3157L34.5244 27.6938Z" fill="#BD0300"/>
<path d="M44.85 18.2419C44.6683 17.682 44.326 17.1879 43.8655 16.8211C43.4051 16.4544 42.847 16.2312 42.2606 16.1794L31.125 15.2194L26.76 4.83937C26.5327 4.29471 26.1494 3.82947 25.6583 3.50223C25.1671 3.17498 24.5902 3.00037 24 3.00037C23.4098 3.00037 22.8328 3.17498 22.3417 3.50223C21.8506 3.82947 21.4672 4.29471 21.24 4.83937L16.8881 15.2194L5.73936 16.185C5.15068 16.2345 4.5897 16.4566 4.12678 16.8236C3.66386 17.1907 3.31961 17.6862 3.13718 18.2481C2.95476 18.81 2.94229 19.4132 3.10134 19.9821C3.26039 20.5511 3.58388 21.0604 4.03124 21.4462L12.4894 28.8375L9.95436 39.8137C9.82032 40.3881 9.85857 40.9893 10.0643 41.5421C10.2701 42.0948 10.6342 42.5747 11.1112 42.9216C11.5882 43.2686 12.1569 43.4672 12.7462 43.4927C13.3355 43.5182 13.9192 43.3694 14.4244 43.065L23.9869 37.2525L33.57 43.065C34.0752 43.3694 34.6589 43.5182 35.2482 43.4927C35.8374 43.4672 36.4061 43.2686 36.8831 42.9216C37.3601 42.5747 37.7243 42.0948 37.93 41.5421C38.1358 40.9893 38.174 40.3881 38.04 39.8137L35.5069 28.8262L43.9631 21.4462C44.4104 21.0591 44.7333 20.5483 44.8911 19.9782C45.0489 19.408 45.0346 18.8039 44.85 18.2419ZM41.9962 19.1794L33.54 26.5594C33.1284 26.9174 32.8223 27.3808 32.6544 27.8998C32.4866 28.4188 32.4635 28.9738 32.5875 29.505L35.1281 40.5L25.5525 34.6875C25.0853 34.403 24.5489 34.2525 24.0019 34.2525C23.4549 34.2525 22.9184 34.403 22.4512 34.6875L12.8887 40.5L15.4125 29.5125C15.5365 28.9813 15.5134 28.4263 15.3455 27.9073C15.1777 27.3883 14.8715 26.9249 14.46 26.5669L5.99999 19.1906C5.9993 19.185 5.9993 19.1793 5.99999 19.1737L17.145 18.21C17.6891 18.162 18.2098 17.9664 18.6509 17.6443C19.0921 17.3221 19.4368 16.8856 19.6481 16.3819L24 6.01499L28.35 16.3819C28.5613 16.8856 28.906 17.3221 29.3472 17.6443C29.7883 17.9664 30.309 18.162 30.8531 18.21L42 19.1737C42 19.1737 42 19.185 42 19.1869L41.9962 19.1794Z" fill="#BD0300"/>
</svg>
