<svg width="48" height="48" viewBox="0 0 48 48" fill="none" xmlns="http://www.w3.org/2000/svg">
<path opacity="0.2" d="M38.9738 23.0963L42.12 19.1588C41.6957 17.5635 41.0607 16.0319 40.2319 14.6044L35.2257 14.0419C34.8257 13.5913 34.3994 13.1649 33.9488 12.765L33.3863 7.75688C31.9572 6.93306 30.4251 6.30256 28.83 5.88188L24.8925 9.02625C24.2906 8.99063 23.687 8.99063 23.085 9.02625L19.1475 5.88C17.5575 6.30562 16.031 6.94055 14.6082 7.76813L14.0457 12.7744C13.5951 13.1743 13.1687 13.6007 12.7688 14.0513L7.76066 14.6138C6.93685 16.0429 6.30634 17.575 5.88566 19.17L9.03004 23.1075C8.99441 23.7095 8.99441 24.313 9.03004 24.915L5.88379 28.8525C6.30816 30.4477 6.94311 31.9793 7.77191 33.4069L12.7782 33.9694C13.1781 34.42 13.6045 34.8463 14.055 35.2463L14.6175 40.2544C16.0467 41.0782 17.5788 41.7087 19.1738 42.1294L23.1113 38.985C23.7133 39.0206 24.3168 39.0206 24.9188 38.985L28.8563 42.1313C30.4515 41.7069 31.9831 41.0719 33.4107 40.2431L33.9732 35.2369C34.4237 34.837 34.8501 34.4106 35.25 33.96L40.2582 33.3975C41.082 31.9684 41.7125 30.4363 42.1332 28.8413L38.9888 24.9038C39.0194 24.3015 39.0144 23.6979 38.9738 23.0963ZM24 31.5C22.5167 31.5 21.0666 31.0601 19.8333 30.236C18.5999 29.4119 17.6386 28.2406 17.0709 26.8701C16.5033 25.4997 16.3548 23.9917 16.6441 22.5368C16.9335 21.082 17.6478 19.7456 18.6967 18.6967C19.7456 17.6478 21.082 16.9335 22.5369 16.6441C23.9917 16.3547 25.4997 16.5032 26.8702 17.0709C28.2406 17.6386 29.412 18.5999 30.2361 19.8332C31.0602 21.0666 31.5 22.5166 31.5 24C31.5 25.9891 30.7099 27.8968 29.3033 29.3033C27.8968 30.7098 25.9892 31.5 24 31.5Z" fill="#BD0300"/>
<path d="M24 15C22.2199 15 20.4799 15.5278 18.9998 16.5167C17.5198 17.5057 16.3662 18.9113 15.685 20.5558C15.0039 22.2003 14.8256 24.0099 15.1729 25.7558C15.5202 27.5016 16.3773 29.1053 17.636 30.3639C18.8947 31.6226 20.4983 32.4798 22.2442 32.827C23.99 33.1743 25.7996 32.9961 27.4441 32.3149C29.0886 31.6337 30.4943 30.4801 31.4832 29.0001C32.4721 27.5201 33 25.78 33 24C32.9975 21.6138 32.0485 19.326 30.3612 17.6387C28.6739 15.9515 26.3861 15.0024 24 15ZM24 30C22.8133 30 21.6532 29.6481 20.6665 28.9888C19.6798 28.3295 18.9108 27.3924 18.4567 26.2961C18.0026 25.1997 17.8837 23.9933 18.1153 22.8294C18.3468 21.6655 18.9182 20.5964 19.7573 19.7573C20.5964 18.9182 21.6655 18.3468 22.8294 18.1153C23.9933 17.8837 25.1997 18.0026 26.2961 18.4567C27.3924 18.9108 28.3295 19.6798 28.9888 20.6665C29.6481 21.6532 30 22.8133 30 24C30 25.5913 29.3678 27.1174 28.2426 28.2426C27.1174 29.3678 25.5913 30 24 30ZM40.5 24.405C40.5075 24.135 40.5075 23.865 40.5 23.595L43.2975 20.1C43.4441 19.9165 43.5457 19.7011 43.5939 19.4711C43.6421 19.2412 43.6356 19.0032 43.575 18.7762C43.1155 17.0526 42.4296 15.3976 41.535 13.8543C41.4177 13.6524 41.255 13.4807 41.0597 13.3528C40.8644 13.2248 40.6419 13.1443 40.41 13.1175L35.9625 12.6225C35.7775 12.4275 35.59 12.24 35.4 12.06L34.875 7.60121C34.848 7.36911 34.7671 7.14653 34.6388 6.95121C34.5106 6.75589 34.3385 6.59323 34.1362 6.47621C32.5931 5.58231 30.938 4.89755 29.2143 4.43996C28.9874 4.37933 28.7493 4.37285 28.5194 4.42105C28.2895 4.46925 28.0741 4.57078 27.8906 4.71746L24.405 7.49996C24.135 7.49996 23.865 7.49996 23.595 7.49996L20.1 4.70809C19.9165 4.5614 19.7011 4.45987 19.4711 4.41167C19.2412 4.36347 19.0032 4.36995 18.7762 4.43059C17.0526 4.89001 15.3976 5.57599 13.8543 6.47059C13.6524 6.58782 13.4807 6.75057 13.3528 6.94588C13.2248 7.14119 13.1443 7.36366 13.1175 7.59559L12.6225 12.0506C12.4275 12.2368 12.24 12.4243 12.06 12.6131L7.60121 13.125C7.36911 13.152 7.14653 13.2328 6.95121 13.3611C6.75589 13.4893 6.59323 13.6615 6.47621 13.8637C5.58249 15.4071 4.89715 17.0622 4.43809 18.7856C4.37771 19.0127 4.37153 19.2508 4.42006 19.4807C4.46859 19.7107 4.57046 19.926 4.71746 20.1093L7.49996 23.595C7.49996 23.865 7.49996 24.135 7.49996 24.405L4.70809 27.9C4.5614 28.0835 4.45987 28.2989 4.41167 28.5288C4.36347 28.7587 4.36995 28.9967 4.43059 29.2237C4.89001 30.9473 5.57599 32.6024 6.47059 34.1456C6.58782 34.3475 6.75057 34.5192 6.94588 34.6472C7.14119 34.7751 7.36366 34.8557 7.59559 34.8825L12.0431 35.3775C12.2293 35.5725 12.4168 35.76 12.6056 35.94L13.125 40.3987C13.152 40.6308 13.2328 40.8534 13.3611 41.0487C13.4893 41.244 13.6615 41.4067 13.8637 41.5237C15.4071 42.4174 17.0622 43.1028 18.7856 43.5618C19.0127 43.6222 19.2508 43.6284 19.4807 43.5799C19.7107 43.5313 19.926 43.4295 20.1093 43.2825L23.595 40.5C23.865 40.5075 24.135 40.5075 24.405 40.5L27.9 43.2975C28.0835 43.4441 28.2989 43.5457 28.5288 43.5939C28.7587 43.6421 28.9967 43.6356 29.2237 43.575C30.9476 43.1164 32.6027 42.4303 34.1456 41.535C34.3475 41.4177 34.5192 41.255 34.6472 41.0597C34.7751 40.8644 34.8557 40.6419 34.8825 40.41L35.3775 35.9625C35.5725 35.7775 35.76 35.59 35.94 35.4L40.3987 34.875C40.6308 34.848 40.8534 34.7671 41.0487 34.6388C41.244 34.5106 41.4067 34.3385 41.5237 34.1362C42.4174 32.5928 43.1028 30.9378 43.5618 29.2143C43.6222 28.9872 43.6284 28.7491 43.5799 28.5192C43.5313 28.2892 43.4295 28.0739 43.2825 27.8906L40.5 24.405ZM37.4812 23.1862C37.5131 23.7282 37.5131 24.2717 37.4812 24.8137C37.4589 25.1848 37.5751 25.551 37.8075 25.8412L40.4681 29.1656C40.1628 30.1358 39.7719 31.077 39.3 31.9781L35.0625 32.4581C34.6934 32.4991 34.3527 32.6754 34.1062 32.9531C33.7453 33.359 33.3609 33.7434 32.955 34.1043C32.6773 34.3508 32.5009 34.6916 32.46 35.0606L31.9893 39.2943C31.0884 39.7665 30.1472 40.1574 29.1768 40.4625L25.8506 37.8018C25.5844 37.5892 25.2538 37.4734 24.9131 37.4737H24.8231C24.2811 37.5056 23.7376 37.5056 23.1956 37.4737C22.8246 37.4524 22.4588 37.5686 22.1681 37.8L18.8343 40.4625C17.8641 40.1572 16.9229 39.7663 16.0218 39.2943L15.5418 35.0625C15.5009 34.6934 15.3245 34.3527 15.0468 34.1062C14.6409 33.7453 14.2565 33.3609 13.8956 32.955C13.6491 32.6773 13.3084 32.5009 12.9393 32.46L8.70559 31.9875C8.23345 31.0865 7.84253 30.1453 7.53746 29.175L10.1981 25.8487C10.4304 25.5585 10.5467 25.1923 10.5243 24.8212C10.4925 24.2792 10.4925 23.7357 10.5243 23.1937C10.5467 22.8226 10.4304 22.4564 10.1981 22.1662L7.53746 18.8343C7.84276 17.8641 8.23367 16.9229 8.70559 16.0218L12.9375 15.5418C13.3065 15.5009 13.6472 15.3245 13.8937 15.0468C14.2546 14.6409 14.639 14.2565 15.045 13.8956C15.3237 13.6489 15.5008 13.3074 15.5418 12.9375L16.0125 8.70559C16.9134 8.23345 17.8546 7.84253 18.825 7.53746L22.1512 10.1981C22.4414 10.4304 22.8076 10.5467 23.1787 10.5243C23.7207 10.4925 24.2642 10.4925 24.8062 10.5243C25.1772 10.5456 25.543 10.4295 25.8337 10.1981L29.1656 7.53746C30.1358 7.84276 31.077 8.23367 31.9781 8.70559L32.4581 12.9375C32.4991 13.3065 32.6754 13.6472 32.9531 13.8937C33.359 14.2546 33.7434 14.639 34.1043 15.045C34.3508 15.3226 34.6916 15.499 35.0606 15.54L39.2943 16.0106C39.7665 16.9115 40.1574 17.8528 40.4625 18.8231L37.8018 22.1493C37.5673 22.442 37.4509 22.812 37.4756 23.1862H37.4812Z" fill="#BD0300"/>
</svg>
