<svg width="48" height="48" viewBox="0 0 48 48" fill="none" xmlns="http://www.w3.org/2000/svg">
<path opacity="0.2" d="M40.5 21.6637V39C40.5 39.3978 40.342 39.7793 40.0607 40.0606C39.7794 40.3419 39.3978 40.5 39 40.5H30C29.6022 40.5 29.2206 40.3419 28.9393 40.0606C28.658 39.7793 28.5 39.3978 28.5 39V30C28.5 29.6021 28.342 29.2206 28.0607 28.9393C27.7794 28.658 27.3978 28.5 27 28.5H21C20.6022 28.5 20.2206 28.658 19.9393 28.9393C19.658 29.2206 19.5 29.6021 19.5 30V39C19.5 39.3978 19.342 39.7793 19.0607 40.0606C18.7794 40.3419 18.3978 40.5 18 40.5H9C8.60218 40.5 8.22064 40.3419 7.93934 40.0606C7.65804 39.7793 7.5 39.3978 7.5 39V21.6637C7.50002 21.4547 7.54373 21.248 7.62833 21.0568C7.71293 20.8657 7.83654 20.6943 7.99125 20.5537L22.9913 6.38997C23.2674 6.13859 23.6275 5.99927 24.0009 5.99927C24.3744 5.99927 24.7344 6.13859 25.0106 6.38997L40.0106 20.5537C40.165 20.6945 40.2883 20.8659 40.3725 21.057C40.4568 21.2482 40.5002 21.4548 40.5 21.6637Z" fill="#BD0300"/>
<path d="M41.0306 19.4569L26.0306 5.30436C26.0233 5.29796 26.0164 5.29107 26.01 5.28373C25.4577 4.78148 24.7381 4.50317 23.9916 4.50317C23.2451 4.50317 22.5254 4.78148 21.9731 5.28373L21.9525 5.30436L6.96937 19.4569C6.66375 19.7379 6.41978 20.0793 6.25292 20.4595C6.08606 20.8397 5.99994 21.2504 6 21.6656V39C6 39.7956 6.31607 40.5587 6.87868 41.1213C7.44129 41.6839 8.20435 42 9 42H18C18.7956 42 19.5587 41.6839 20.1213 41.1213C20.6839 40.5587 21 39.7956 21 39V30H27V39C27 39.7956 27.3161 40.5587 27.8787 41.1213C28.4413 41.6839 29.2044 42 30 42H39C39.7957 42 40.5587 41.6839 41.1213 41.1213C41.6839 40.5587 42 39.7956 42 39V21.6656C42.0001 21.2504 41.9139 20.8397 41.7471 20.4595C41.5802 20.0793 41.3363 19.7379 41.0306 19.4569ZM39 39H30V30C30 29.2043 29.6839 28.4413 29.1213 27.8787C28.5587 27.3161 27.7956 27 27 27H21C20.2044 27 19.4413 27.3161 18.8787 27.8787C18.3161 28.4413 18 29.2043 18 30V39H9V21.6656L9.02063 21.6469L24 7.49998L38.9812 21.6431L39.0019 21.6619L39 39Z" fill="#BD0300"/>
</svg>
