<svg width="48" height="48" viewBox="0 0 48 48" fill="none" xmlns="http://www.w3.org/2000/svg">
<path opacity="0.2" d="M40.3856 24C39.0731 37.8619 26.985 42.585 24.4613 43.4231C24.3125 43.4729 24.1568 43.4989 24 43.5V24H40.3856ZM24 9H9C8.60218 9 8.22064 9.15804 7.93934 9.43934C7.65804 9.72064 7.5 10.1022 7.5 10.5V21.5194C7.5 22.3756 7.53813 23.2013 7.61438 23.9963H24V9Z" fill="#BD0300"/>
<path d="M39 7.5H9C8.20435 7.5 7.44129 7.81607 6.87868 8.37868C6.31607 8.94129 6 9.70435 6 10.5V21.5194C6 38.3231 20.2162 43.8956 23.0625 44.8406C23.6702 45.0486 24.3298 45.0486 24.9375 44.8406C27.7875 43.8937 42 38.3213 42 21.5175V10.5C42 9.70435 41.6839 8.94129 41.1213 8.37868C40.5587 7.81607 39.7957 7.5 39 7.5ZM39 21.5231C39 21.855 39 22.1794 38.9794 22.5H25.5V10.5H39V21.5231ZM9 10.5H22.5V22.5H9.02063C9.0075 22.1794 9 21.855 9 21.5231V10.5ZM9.32625 25.5H22.5V41.4225C18.81 39.855 11.0119 35.4225 9.32625 25.5ZM25.5 41.4206V25.5H38.6737C36.9881 35.4169 29.1975 39.8512 25.5 41.4206Z" fill="#BD0300"/>
</svg>
