<svg width="24" height="24" viewBox="0 0 24 24" fill="none" xmlns="http://www.w3.org/2000/svg">
<g clip-path="url(#clip0_157_5896)">
<path d="M11.9999 23.4286C18.3117 23.4286 23.4284 18.3118 23.4284 12C23.4284 5.68816 18.3117 0.571411 11.9999 0.571411C5.68803 0.571411 0.571289 5.68816 0.571289 12C0.571289 18.3118 5.68803 23.4286 11.9999 23.4286Z" fill="#039BE5"/>
<path d="M5.72696 11.6751L16.8758 7.48011C17.3932 7.29768 17.8452 7.6033 17.6775 8.36688L17.6784 8.36594L15.7802 17.0935C15.6395 17.7123 15.2627 17.8627 14.7356 17.5712L11.8448 15.4921L10.4505 16.8029C10.2963 16.9534 10.1663 17.0803 9.86754 17.0803L10.0728 14.2094L15.4304 9.48592C15.6636 9.28562 15.3783 9.17278 15.071 9.37214L8.45009 13.4402L5.59591 12.5713C4.97632 12.3794 4.96283 11.9666 5.72696 11.6751Z" fill="white"/>
</g>
<defs>
<clipPath id="clip0_157_5896">
<rect width="24" height="24" fill="white"/>
</clipPath>
</defs>
</svg>
