<?xml version="1.0" encoding="utf-8"?><svg viewBox="0 0 150 48" xmlns="http://www.w3.org/2000/svg" xmlns:xlink="http://www.w3.org/1999/xlink"><style>:root>svg{display:none}:root>svg:target{display:block}</style><svg fill="none" viewBox="0 0 48 48" id="icon-big-star" xmlns="http://www.w3.org/2000/svg"><path opacity=".2" d="M34.524 27.694a1.515 1.515 0 0 0-.476 1.48l2.535 10.975a1.5 1.5 0 0 1-2.23 1.63l-9.58-5.813a1.486 1.486 0 0 0-1.546 0l-9.58 5.813a1.5 1.5 0 0 1-2.23-1.63l2.535-10.976a1.516 1.516 0 0 0-.476-1.48l-8.459-7.377a1.5 1.5 0 0 1 .852-2.639l11.148-.963a1.501 1.501 0 0 0 1.251-.915l4.356-10.38a1.5 1.5 0 0 1 2.752 0l4.356 10.38a1.5 1.5 0 0 0 1.25.915l11.15.963a1.5 1.5 0 0 1 .85 2.639l-8.458 7.378Z" fill="#BD0300"/><path d="M44.85 18.242a3 3 0 0 0-2.59-2.063l-11.135-.96L26.76 4.84a2.991 2.991 0 0 0-5.52 0l-4.352 10.38-11.149.966a3 3 0 0 0-1.708 5.261l8.458 7.391-2.535 10.977a3 3 0 0 0 4.47 3.251l9.563-5.813 9.583 5.813a3 3 0 0 0 4.47-3.251l-2.533-10.988 8.456-7.38a3 3 0 0 0 .887-3.204Zm-2.854.937-8.456 7.38a3 3 0 0 0-.953 2.946L35.128 40.5l-9.576-5.813a2.981 2.981 0 0 0-3.1 0L12.888 40.5l2.524-10.988a3 3 0 0 0-.953-2.945L6 19.19a.07.07 0 0 1 0-.017l11.145-.964a3 3 0 0 0 2.503-1.828L24 6.015l4.35 10.367a3 3 0 0 0 2.503 1.828L42 19.174v.013l-.004-.008Z" fill="#BD0300"/></svg><svg fill="none" viewBox="0 0 32 32" id="icon-cross" xmlns="http://www.w3.org/2000/svg"><path d="M25.708 24.292a1.002 1.002 0 0 1-.325 1.632 1 1 0 0 1-1.09-.217L16 17.414l-8.292 8.293a1 1 0 1 1-1.415-1.415L14.586 16 6.293 7.707a1 1 0 0 1 1.415-1.415L16 14.586l8.293-8.294a1 1 0 1 1 1.415 1.415L17.414 16l8.294 8.292Z" fill="currentColor"/></svg><svg fill="none" viewBox="0 0 150 16" id="icon-dev" xmlns="http://www.w3.org/2000/svg"><path d="M84.606 3.442c1.295 0 2.286.229 2.973.685.687.456 1.032 1.155 1.034 2.096 0 1.17-.6 1.965-1.8 2.382.164.19.349.424.553.699a20.08 20.08 0 0 1 1.257 1.873c.2.337.369.667.532.99H87.33a19.246 19.246 0 0 0-.532-.902c-.19-.304-.382-.6-.576-.89a30.908 30.908 0 0 0-.576-.806c-.185-.253-.37-.48-.532-.68-.12 0-.224.013-.309.013h-1.038v3.266h-1.631V3.654a9.16 9.16 0 0 1 1.269-.169c.449-.028.851-.043 1.2-.043Zm.12 1.359c-.344 0-.664.012-.958.037V7.63h.713a8.03 8.03 0 0 0 1.05-.062 2.28 2.28 0 0 0 .757-.226 1.1 1.1 0 0 0 .46-.436c.11-.217.164-.457.155-.698a1.347 1.347 0 0 0-.155-.672 1.128 1.128 0 0 0-.448-.438 2.167 2.167 0 0 0-.692-.23 5.194 5.194 0 0 0-.881-.068Zm5.247 4.139a3.97 3.97 0 0 1 .266-1.508 3.15 3.15 0 0 1 .708-1.08 2.95 2.95 0 0 1 1.01-.648c.37-.143.765-.216 1.164-.217.932 0 1.66.278 2.184.834.523.556.784 1.385.783 2.489v.28c0 .104-.011.198-.019.28h-4.476c.007.23.061.455.16.664.1.209.241.396.417.552.341.288.835.43 1.478.43a5.047 5.047 0 0 0 1.781-.311l.208 1.234a2.492 2.492 0 0 1-.356.131 5.602 5.602 0 0 1-.52.125 8.053 8.053 0 0 1-.626.092 5.844 5.844 0 0 1-.687.037 4.301 4.301 0 0 1-1.555-.254 2.915 2.915 0 0 1-1.088-.711 2.895 2.895 0 0 1-.636-1.067 4.263 4.263 0 0 1-.196-1.353Zm4.548-.674c.001-.201-.03-.4-.092-.592a1.387 1.387 0 0 0-.264-.486 1.241 1.241 0 0 0-.427-.323 1.394 1.394 0 0 0-.602-.12c-.22-.005-.437.04-.636.13a1.471 1.471 0 0 0-.751.83 2.6 2.6 0 0 0-.143.56h2.915Zm4.751 2.484h-1.604v1.543h1.603V10.75Zm0-5.001h-1.604v1.543h1.603V5.749Z" fill="#FF303C"/><path d="M103.45 5.485c.444-.011.887.052 1.309.187.323.105.614.285.848.522.217.235.372.515.455.818.094.344.14.698.136 1.053v3.952c-.243.05-.607.11-1.095.177-.548.075-1.1.11-1.653.107a5.168 5.168 0 0 1-1.109-.114 2.392 2.392 0 0 1-.859-.355 1.755 1.755 0 0 1-.554-.65 2.178 2.178 0 0 1-.199-.984c-.018-.33.055-.66.21-.955.149-.254.36-.47.615-.629.275-.17.581-.291.902-.356a5.197 5.197 0 0 1 1.612-.074c.205.023.408.058.608.105v-.237a1.903 1.903 0 0 0-.064-.498 1.006 1.006 0 0 0-.228-.417 1.085 1.085 0 0 0-.426-.281 1.939 1.939 0 0 0-.667-.1 6.188 6.188 0 0 0-1 .075 4.58 4.58 0 0 0-.739.178l-.194-1.222c.284-.086.573-.153.867-.199.404-.07.814-.105 1.225-.103Zm.131 5.621c.371.01.742-.016 1.108-.074v-1.67a2.758 2.758 0 0 0-.369-.076 3.674 3.674 0 0 0-.554-.037c-.176 0-.351.012-.525.037a1.642 1.642 0 0 0-.479.139.842.842 0 0 0-.343.279.756.756 0 0 0-.129.455c0 .355.114.604.349.743.287.148.611.219.936.204h.006Zm4.152-2.194c-.004-.46.075-.918.232-1.352.146-.403.372-.773.667-1.09a3.062 3.062 0 0 1 1.057-.724c.443-.18.92-.268 1.4-.261a4.906 4.906 0 0 1 1.812.336l-.336 1.234a3.752 3.752 0 0 0-.615-.178 3.45 3.45 0 0 0-.739-.075c-.616 0-1.082.185-1.4.555-.318.37-.478.891-.48 1.564 0 .65.153 1.161.454 1.54.301.379.813.567 1.53.567.264 0 .529-.025.788-.075.23-.038.456-.098.675-.177l.219 1.244c-.25.107-.513.182-.783.224a5.688 5.688 0 0 1-1.082.1 4.051 4.051 0 0 1-1.508-.255 2.89 2.89 0 0 1-1.064-.71 2.917 2.917 0 0 1-.628-1.085 4.319 4.319 0 0 1-.199-1.382Zm6.412-4.986 1.568-.249v1.97h2.401v1.259h-2.401v2.656c0 .522.086.896.259 1.121.172.226.466.338.881.338.255.004.51-.025.757-.087.178-.045.353-.099.525-.162l.258 1.197c-.232.09-.47.168-.713.23a4.03 4.03 0 0 1-1.034.12 3.36 3.36 0 0 1-1.212-.188 1.78 1.78 0 0 1-.77-.534 2.09 2.09 0 0 1-.403-.86 5.13 5.13 0 0 1-.116-1.152V3.926Zm7.241-.194a.841.841 0 0 1-.285.674.99.99 0 0 1-.672.249c-.254.005-.5-.084-.687-.249a.857.857 0 0 1-.286-.674.854.854 0 0 1 .065-.373.885.885 0 0 1 .221-.313c.187-.165.433-.254.687-.249a.99.99 0 0 1 .672.249.884.884 0 0 1 .285.686Zm-.168 8.427h-1.567V5.647h1.567v6.512Zm3.74.007a39.856 39.856 0 0 1-1.333-2.947 35.756 35.756 0 0 1-1.242-3.572h1.663a36.194 36.194 0 0 0 1.601 4.725 42.874 42.874 0 0 0 .852-2.288c.15-.42.287-.84.41-1.26.123-.42.235-.813.336-1.177h1.62a36.052 36.052 0 0 1-1.241 3.572 39.873 39.873 0 0 1-1.334 2.947h-1.332Zm5.068-6.3c.388-.1.782-.18 1.179-.237a10.79 10.79 0 0 1 1.616-.119c.473-.014.943.06 1.386.219.345.127.65.337.887.61a2.3 2.3 0 0 1 .458.949c.093.399.138.807.135 1.216v3.662h-1.572V8.74a4.732 4.732 0 0 0-.073-.89 1.532 1.532 0 0 0-.232-.597.922.922 0 0 0-.434-.34 1.917 1.917 0 0 0-.68-.106 5.43 5.43 0 0 0-.621.038c-.216.024-.369.046-.48.062v5.26h-1.567l-.002-6.3ZM143.732 8.9c.006.48-.073.956-.233 1.41a3.118 3.118 0 0 1-.661 1.086 2.968 2.968 0 0 1-1.029.692c-.421.17-.873.254-1.329.249a3.368 3.368 0 0 1-1.32-.25 2.978 2.978 0 0 1-1.024-.696 3.163 3.163 0 0 1-.667-1.08 3.96 3.96 0 0 1-.24-1.409 3.909 3.909 0 0 1 .24-1.403c.147-.399.376-.765.673-1.077a2.95 2.95 0 0 1 1.029-.691c.415-.166.86-.25 1.309-.244.451-.005.899.078 1.316.244.391.154.743.39 1.029.691.294.313.52.68.667 1.077.165.45.246.924.24 1.401Zm-1.606 0c0-.649-.146-1.16-.434-1.54a1.529 1.529 0 0 0-.538-.417 1.59 1.59 0 0 0-1.347 0c-.21.098-.394.241-.538.418-.289.378-.434.889-.434 1.54 0 .65.145 1.176.434 1.557.143.178.326.323.536.422a1.578 1.578 0 0 0 1.351 0c.21-.1.393-.244.536-.422.288-.38.434-.902.434-1.558ZM81.193 1.383V0H75v15.915h6.194V14.53h-4.757V1.383h4.757Z" fill="#7D7D7D"/><path d="M143.717 0v1.383h4.759V14.53h-4.759v1.385h6.196V0h-6.196ZM6.569 12.032a5.11 5.11 0 0 1-1.87-.329 3.983 3.983 0 0 1-1.449-.96 4.395 4.395 0 0 1-.942-1.55c-.216-.621-.324-1.33-.324-2.125 0-.796.122-1.5.366-2.112a4.65 4.65 0 0 1 1.012-1.564c.422-.42.915-.74 1.477-.96a4.909 4.909 0 0 1 1.8-.329 6.525 6.525 0 0 1 1.927.274c.243.074.44.147.59.22.15.073.253.128.31.164L9.072 3.86a2.204 2.204 0 0 0-.366-.179 7.245 7.245 0 0 0-.548-.192 4.12 4.12 0 0 0-.661-.15 3.738 3.738 0 0 0-.717-.07c-.516 0-.98.088-1.393.261a2.877 2.877 0 0 0-1.054.755c-.29.329-.516.731-.675 1.207a5.14 5.14 0 0 0-.225 1.577c0 .567.065 1.083.197 1.55.14.466.347.868.618 1.206.272.33.61.585 1.013.768.412.183.89.275 1.434.275.628 0 1.149-.064 1.561-.192a6.97 6.97 0 0 0 .928-.343l.352 1.097a2.236 2.236 0 0 1-.352.178c-.168.064-.38.128-.632.192a8.195 8.195 0 0 1-1.983.233Zm3.792-1.248h.788a6.16 6.16 0 0 0 .731-1.357c.188-.467.328-.947.422-1.44a11.91 11.91 0 0 0 .183-1.564 48.41 48.41 0 0 0 .056-1.728h4.795v6.09h.985v3.03h-1.238v-1.988H11.6v1.988h-1.24v-3.03Zm5.668 0v-5.02h-2.293c-.009.43-.033.865-.07 1.304-.037.43-.098.86-.183 1.289-.084.42-.206.836-.365 1.248a6.95 6.95 0 0 1-.577 1.18h3.488Zm3.298-2.509c0-.631.093-1.18.281-1.646a3.44 3.44 0 0 1 .745-1.18c.31-.31.666-.544 1.069-.699a3.413 3.413 0 0 1 1.238-.233c.984 0 1.739.302 2.264.905.525.594.787 1.504.787 2.73v.219c0 .082-.005.16-.014.233h-5.006c.056.74.276 1.303.66 1.687.385.384.985.576 1.8.576.46 0 .845-.037 1.154-.11.319-.082.558-.16.717-.233l.183 1.07c-.16.082-.44.169-.844.26a6 6 0 0 1-1.35.137c-.637 0-1.19-.091-1.66-.274a3.165 3.165 0 0 1-1.138-.782 3.229 3.229 0 0 1-.675-1.166 5.06 5.06 0 0 1-.211-1.494Zm5.02-.7c.01-.576-.14-1.047-.45-1.412-.3-.375-.717-.563-1.252-.563-.3 0-.567.06-.801.179-.225.11-.417.256-.577.438a2.18 2.18 0 0 0-.38.631 3.29 3.29 0 0 0-.168.727h3.628Zm5.788-1.81c0 .302-.01.626-.028.974a12.65 12.65 0 0 1-.225 2.043c-.066.33-.15.64-.253.933a4.18 4.18 0 0 1-.394.822 2.84 2.84 0 0 1-.562.686 3.348 3.348 0 0 1-.788.494c-.3.128-.652.21-1.055.247l-.182-1.07c.459-.091.82-.26 1.082-.507.272-.247.488-.549.647-.906.14-.31.244-.662.31-1.056.065-.393.112-.8.14-1.22.028-.43.042-.86.042-1.29.01-.429.015-.836.015-1.22h4.865v7.132h-1.308V5.765h-2.306Zm8.335 5.143c.309 0 .58-.005.815-.014a4.23 4.23 0 0 0 .605-.082V8.686c-.094-.046-.249-.082-.464-.11a4.443 4.443 0 0 0-.76-.055c-.197 0-.408.014-.633.042a1.923 1.923 0 0 0-.604.178 1.209 1.209 0 0 0-.45.356c-.122.147-.183.343-.183.59 0 .457.15.777.45.96.3.174.708.26 1.223.26Zm-.113-6.391c.525 0 .965.068 1.322.206.365.128.656.315.872.562.225.238.384.526.478.864.093.329.14.695.14 1.097v4.457c-.112.018-.272.046-.478.082a17.835 17.835 0 0 1-1.505.15c-.29.029-.58.042-.871.042-.413 0-.793-.04-1.14-.123a2.66 2.66 0 0 1-.9-.384 1.854 1.854 0 0 1-.59-.713c-.14-.293-.211-.645-.211-1.056 0-.393.08-.732.24-1.015.168-.283.393-.512.674-.686.281-.173.61-.301.984-.384a5.499 5.499 0 0 1 1.182-.123c.13 0 .267.009.407.027.141.01.272.028.394.055a6.443 6.443 0 0 1 .535.096v-.356c0-.21-.024-.416-.07-.618a1.352 1.352 0 0 0-.254-.548 1.19 1.19 0 0 0-.506-.384c-.206-.1-.478-.151-.816-.151-.43 0-.81.032-1.139.096a3.763 3.763 0 0 0-.717.178l-.155-1.056c.17-.073.45-.141.844-.205.394-.074.82-.11 1.28-.11Zm10.975 7.31h-1.308V8.672H44.65v3.155h-1.308V4.695h1.308v2.908h3.375V4.695h1.308v7.132Zm8.704-3.567c0 .568-.084 1.08-.253 1.537-.169.457-.408.85-.718 1.18-.3.328-.66.584-1.082.767-.422.174-.881.26-1.378.26-.497 0-.957-.086-1.378-.26a3.278 3.278 0 0 1-1.097-.768 3.555 3.555 0 0 1-.704-1.18 4.409 4.409 0 0 1-.253-1.535c0-.558.085-1.065.253-1.522a3.53 3.53 0 0 1 .704-1.194c.309-.329.675-.58 1.096-.754a3.427 3.427 0 0 1 1.379-.274c.497 0 .956.091 1.378.274a2.98 2.98 0 0 1 1.083.754c.309.33.548.727.717 1.194.169.457.253.964.253 1.522Zm-1.364 0c0-.804-.188-1.44-.563-1.905-.365-.476-.867-.714-1.504-.714-.638 0-1.144.238-1.52.714-.365.466-.548 1.101-.548 1.906 0 .804.183 1.444.549 1.92.375.466.881.7 1.519.7.637 0 1.139-.234 1.504-.7.375-.476.563-1.116.563-1.92Zm7.738 2.607c.056.009.136.018.24.027.102.01.22.018.35.027.132 0 .268.005.409.014h.421c.272 0 .53-.018.774-.055.253-.036.469-.1.647-.192a1.12 1.12 0 0 0 .436-.356.98.98 0 0 0 .169-.59.954.954 0 0 0-.155-.562 1.012 1.012 0 0 0-.394-.37 1.867 1.867 0 0 0-.605-.193 4.565 4.565 0 0 0-.73-.054H64.41v2.304Zm1.392-3.25c.253 0 .483-.014.69-.042a1.74 1.74 0 0 0 .548-.178.903.903 0 0 0 .506-.85c0-.22-.056-.394-.169-.522a1.025 1.025 0 0 0-.45-.288 2.044 2.044 0 0 0-.618-.137 5.69 5.69 0 0 0-.69-.04c-.215 0-.435.004-.66.013-.216.009-.399.018-.549.027v2.016h1.392Zm-.028 4.333c-.553 0-1.064-.027-1.532-.082-.47-.046-.84-.1-1.112-.165v-6.94a8.818 8.818 0 0 1 1.111-.164c.47-.055.98-.082 1.533-.082.385 0 .76.032 1.125.096.366.064.69.174.97.329.282.146.507.352.676.617.178.256.267.576.267.96 0 .348-.09.645-.267.892a1.772 1.772 0 0 1-.718.576c.404.137.722.342.957.617.243.265.365.64.365 1.124 0 .43-.089.787-.267 1.07a1.892 1.892 0 0 1-.717.686 3.06 3.06 0 0 1-1.069.356 7.58 7.58 0 0 1-1.322.11Z" fill="#7D7D7D"/></svg><svg fill="none" viewBox="0 0 48 48" id="icon-gear" xmlns="http://www.w3.org/2000/svg"><path opacity=".2" d="m38.974 23.096 3.146-3.937a18.584 18.584 0 0 0-1.888-4.555l-5.006-.562c-.4-.45-.827-.877-1.277-1.277l-.563-5.008a18.642 18.642 0 0 0-4.556-1.875l-3.938 3.144a15.3 15.3 0 0 0-1.807 0L19.147 5.88a18.588 18.588 0 0 0-4.539 1.888l-.562 5.006c-.45.4-.877.827-1.277 1.277l-5.008.563a18.643 18.643 0 0 0-1.875 4.556l3.144 3.938a15.296 15.296 0 0 0 0 1.807l-3.146 3.938a18.59 18.59 0 0 0 1.888 4.554l5.006.562c.4.451.826.877 1.277 1.277l.563 5.008a18.647 18.647 0 0 0 4.556 1.875l3.937-3.144c.602.036 1.206.036 1.808 0l3.937 3.146a18.592 18.592 0 0 0 4.555-1.888l.562-5.006c.45-.4.877-.826 1.277-1.277l5.008-.563a18.644 18.644 0 0 0 1.875-4.556l-3.144-3.937a15.58 15.58 0 0 0-.015-1.808ZM24 31.5a7.5 7.5 0 1 1 0-15 7.5 7.5 0 0 1 0 15Z" fill="#BD0300"/><path d="M24 15a9 9 0 1 0 9 9 9.01 9.01 0 0 0-9-9Zm0 15a6 6 0 1 1 0-12 6 6 0 0 1 0 12Zm16.5-5.595c.008-.27.008-.54 0-.81l2.797-3.495a1.5 1.5 0 0 0 .278-1.324 20.179 20.179 0 0 0-2.04-4.922 1.5 1.5 0 0 0-1.125-.736l-4.447-.495a14.918 14.918 0 0 0-.563-.563l-.525-4.459a1.5 1.5 0 0 0-.739-1.125 20.116 20.116 0 0 0-4.922-2.036 1.5 1.5 0 0 0-1.323.277L24.405 7.5h-.81L20.1 4.708a1.5 1.5 0 0 0-1.324-.277 20.176 20.176 0 0 0-4.922 2.04 1.5 1.5 0 0 0-.736 1.125l-.495 4.455a16.95 16.95 0 0 0-.563.562l-4.459.512a1.5 1.5 0 0 0-1.125.739 20.196 20.196 0 0 0-2.038 4.922 1.5 1.5 0 0 0 .28 1.323L7.5 23.595v.81L4.708 27.9a1.5 1.5 0 0 0-.277 1.324 20.174 20.174 0 0 0 2.04 4.922 1.5 1.5 0 0 0 1.125.736l4.447.495c.186.195.374.383.563.563l.519 4.459a1.5 1.5 0 0 0 .739 1.125 20.194 20.194 0 0 0 4.922 2.038 1.5 1.5 0 0 0 1.323-.28l3.486-2.782c.27.008.54.008.81 0l3.495 2.797a1.501 1.501 0 0 0 1.324.278 20.105 20.105 0 0 0 4.922-2.04 1.502 1.502 0 0 0 .736-1.125l.495-4.447c.195-.185.383-.373.563-.563l4.459-.525a1.5 1.5 0 0 0 1.125-.739 20.192 20.192 0 0 0 2.038-4.922 1.5 1.5 0 0 0-.28-1.323L40.5 24.405Zm-3.019-1.219a13.85 13.85 0 0 1 0 1.628 1.5 1.5 0 0 0 .326 1.027l2.661 3.325c-.305.97-.696 1.911-1.168 2.812l-4.237.48a1.5 1.5 0 0 0-.957.495c-.36.406-.745.79-1.151 1.151a1.5 1.5 0 0 0-.495.957l-.47 4.233c-.902.473-1.843.863-2.813 1.169l-3.326-2.661a1.5 1.5 0 0 0-.938-.328h-.09a13.85 13.85 0 0 1-1.627 0 1.51 1.51 0 0 0-1.028.326l-3.334 2.663a17.166 17.166 0 0 1-2.812-1.169l-.48-4.231a1.5 1.5 0 0 0-.495-.957c-.406-.36-.79-.745-1.151-1.151a1.5 1.5 0 0 0-.957-.495l-4.233-.473a17.126 17.126 0 0 1-1.169-2.812l2.661-3.326a1.5 1.5 0 0 0 .326-1.028 13.894 13.894 0 0 1 0-1.627 1.5 1.5 0 0 0-.326-1.028l-2.66-3.332c.305-.97.696-1.911 1.168-2.812l4.232-.48a1.5 1.5 0 0 0 .956-.495c.36-.406.745-.79 1.151-1.151a1.5 1.5 0 0 0 .497-.959l.47-4.231a17.12 17.12 0 0 1 2.813-1.169l3.326 2.661a1.5 1.5 0 0 0 1.028.326 13.894 13.894 0 0 1 1.627 0 1.51 1.51 0 0 0 1.028-.326l3.332-2.66c.97.305 1.911.696 2.812 1.168l.48 4.232a1.5 1.5 0 0 0 .495.956c.406.36.79.745 1.151 1.151a1.5 1.5 0 0 0 .957.495l4.233.47c.473.901.863 1.843 1.169 2.813l-2.661 3.326a1.5 1.5 0 0 0-.326 1.037h.005Z" fill="#BD0300"/></svg><svg fill="none" viewBox="0 0 48 48" id="icon-hourglass" xmlns="http://www.w3.org/2000/svg"><path opacity=".2" d="M36 12v2.182a1.498 1.498 0 0 1-.596 1.193L24 24l-11.4-8.55a1.5 1.5 0 0 1-.6-1.2V12h24Z" fill="#BD0300"/><path d="M34.5 4.5h-21a3 3 0 0 0-3 3v6.75a3.013 3.013 0 0 0 1.2 2.4L21.5 24l-9.8 7.35a3.013 3.013 0 0 0-1.2 2.4v6.75a3 3 0 0 0 3 3h21a3 3 0 0 0 3-3v-6.682a3.017 3.017 0 0 0-1.19-2.395L26.487 24l9.821-7.423a3.018 3.018 0 0 0 1.191-2.395V7.5a3 3 0 0 0-3-3Zm0 3v3h-21v-3h21Zm0 33h-21v-6.75L24 25.875l10.5 7.94V40.5ZM24 22.125 13.5 14.25v-.75h21v.682L24 22.125Z" fill="#BD0300"/></svg><svg fill="none" viewBox="0 0 48 48" id="icon-house" xmlns="http://www.w3.org/2000/svg"><path opacity=".2" d="M40.5 21.664V39a1.5 1.5 0 0 1-1.5 1.5h-9a1.5 1.5 0 0 1-1.5-1.5v-9a1.5 1.5 0 0 0-1.5-1.5h-6a1.5 1.5 0 0 0-1.5 1.5v9a1.5 1.5 0 0 1-1.5 1.5H9A1.5 1.5 0 0 1 7.5 39V21.664a1.5 1.5 0 0 1 .491-1.11l15-14.164a1.5 1.5 0 0 1 2.02 0l15 14.164a1.5 1.5 0 0 1 .489 1.11Z" fill="#BD0300"/><path d="m41.03 19.457-15-14.153a3 3 0 0 0-4.058-.02l-.02.02L6.97 19.457A3 3 0 0 0 6 21.666V39a3 3 0 0 0 3 3h9a3 3 0 0 0 3-3v-9h6v9a3 3 0 0 0 3 3h9a3 3 0 0 0 3-3V21.666a3 3 0 0 0-.97-2.21ZM39 39h-9v-9a3 3 0 0 0-3-3h-6a3 3 0 0 0-3 3v9H9V21.666l.02-.02L24 7.5l14.981 14.143.02.019L39 39Z" fill="#BD0300"/></svg><svg fill="none" viewBox="0 0 48 48" id="icon-lightbulb" xmlns="http://www.w3.org/2000/svg"><path opacity=".2" d="M39 19.5a14.974 14.974 0 0 1-5.736 11.797 4.555 4.555 0 0 0-1.764 3.578V36a1.5 1.5 0 0 1-1.5 1.5H18a1.5 1.5 0 0 1-1.5-1.5v-1.125a4.521 4.521 0 0 0-1.744-3.563A14.976 14.976 0 0 1 9 19.584C8.955 11.454 15.51 4.688 23.638 4.5A15 15 0 0 1 39 19.5Z" fill="#BD0300"/><path d="M33 43.5a1.5 1.5 0 0 1-1.5 1.5h-15a1.5 1.5 0 1 1 0-3h15a1.5 1.5 0 0 1 1.5 1.5Zm7.5-24a16.414 16.414 0 0 1-6.307 12.977A3.045 3.045 0 0 0 33 34.875V36a3 3 0 0 1-3 3H18a3 3 0 0 1-3-3v-1.125a3 3 0 0 0-1.168-2.374A16.423 16.423 0 0 1 7.5 19.594C7.451 10.656 14.674 3.216 23.602 3A16.5 16.5 0 0 1 40.5 19.5Zm-3 0A13.501 13.501 0 0 0 23.674 6C16.36 6.173 10.46 12.26 10.5 19.573a13.432 13.432 0 0 0 5.182 10.556A6 6 0 0 1 18 34.875V36h4.5v-8.38l-5.561-5.559a1.5 1.5 0 0 1 2.122-2.122L24 24.879l4.939-4.94a1.502 1.502 0 0 1 2.122 2.122l-5.561 5.56V36H30v-1.125a6.023 6.023 0 0 1 2.338-4.753A13.435 13.435 0 0 0 37.5 19.5Z" fill="#BD0300"/></svg><svg fill="none" viewBox="0 0 32 32" id="icon-phone" xmlns="http://www.w3.org/2000/svg"><path d="M19.034 4.741a.998.998 0 0 1 1.225-.707 10.777 10.777 0 0 1 7.707 7.707 1 1 0 1 1-1.932.517 8.794 8.794 0 0 0-6.291-6.292 1 1 0 0 1-.71-1.225Zm-.291 5.225c1.723.46 2.83 1.568 3.29 3.292a1 1 0 1 0 1.933-.517c-.64-2.395-2.312-4.067-4.707-4.707a1 1 0 0 0-.517 1.932Zm10.242 11.919A7.032 7.032 0 0 1 22 28c-9.925 0-18-8.075-18-18a7.032 7.032 0 0 1 6.115-6.985 2 2 0 0 1 2.078 1.19l2.64 5.894v.015a2 2 0 0 1-.16 1.886 1.367 1.367 0 0 1-.07.096L12 15.181c.936 1.903 2.926 3.875 4.854 4.814l3.042-2.589c.03-.025.061-.048.094-.07a2 2 0 0 1 1.896-.175l.017.008 5.888 2.639a2 2 0 0 1 1.194 2.077ZM27 21.635h-.014l-5.875-2.631-3.044 2.588a.77.77 0 0 1-.092.07 2 2 0 0 1-1.969.143c-2.341-1.131-4.675-3.447-5.807-5.764a2 2 0 0 1 .125-1.962.769.769 0 0 1 .071-.097L13 10.895 10.375 5.02v-.015A5.025 5.025 0 0 0 6 10a16.018 16.018 0 0 0 16 16 5.026 5.026 0 0 0 5-4.366v.001Z" fill="currentColor"/></svg><svg fill="none" viewBox="0 0 48 48" id="icon-puzzle" xmlns="http://www.w3.org/2000/svg"><path opacity=".2" d="M38.25 31.5a5.25 5.25 0 0 0 2.25-.504V39a1.5 1.5 0 0 1-1.5 1.5H12a1.5 1.5 0 0 1-1.5-1.5v-8.004a5.251 5.251 0 0 1-5.054-9.182 5.25 5.25 0 0 1 5.054-.31V13.5A1.5 1.5 0 0 1 12 12h8.754a5.25 5.25 0 1 1 9.49 0H39a1.5 1.5 0 0 1 1.5 1.5v8.004a5.25 5.25 0 1 0-2.25 9.996Z" fill="#BD0300"/><path d="M41.3 29.726a1.5 1.5 0 0 0-1.443-.086 3.75 3.75 0 1 1 0-6.78A1.5 1.5 0 0 0 42 21.504V13.5a3 3 0 0 0-3-3h-6.791a6.78 6.78 0 0 0-2.089-5.672A6.75 6.75 0 0 0 18.793 10.5H12a3 3 0 0 0-3 3v6.041a6.77 6.77 0 0 0-5.67 2.089 6.693 6.693 0 0 0-1.817 5.063 6.765 6.765 0 0 0 6.246 6.3c.413.028.829.02 1.241-.027V39a3 3 0 0 0 3 3h27a3 3 0 0 0 3-3v-8.004a1.5 1.5 0 0 0-.7-1.27ZM39 39H12v-8.004a1.5 1.5 0 0 0-2.143-1.356 3.75 3.75 0 1 1 0-6.78A1.5 1.5 0 0 0 12 21.504V13.5h8.754a1.5 1.5 0 0 0 1.356-2.143 3.75 3.75 0 1 1 6.78 0 1.5 1.5 0 0 0 1.356 2.143H39v6.043a6.75 6.75 0 1 0 0 13.416V39Z" fill="#BD0300"/></svg><svg fill="none" viewBox="0 0 48 48" id="icon-shield" xmlns="http://www.w3.org/2000/svg"><path opacity=".2" d="M40.386 24C39.073 37.862 26.985 42.585 24.46 43.423c-.148.05-.304.076-.461.077V24h16.386ZM24 9H9a1.5 1.5 0 0 0-1.5 1.5v11.02c0 .856.038 1.681.114 2.476H24V9Z" fill="#BD0300"/><path d="M39 7.5H9a3 3 0 0 0-3 3v11.02c0 16.803 14.216 22.376 17.063 23.32a2.895 2.895 0 0 0 1.875 0C27.788 43.895 42 38.322 42 21.518V10.5a3 3 0 0 0-3-3Zm0 14.023c0 .332 0 .656-.02.977H25.5v-12H39v11.023ZM9 10.5h13.5v12H9.02a26 26 0 0 1-.02-.977V10.5Zm.326 15H22.5v15.922c-3.69-1.567-11.488-6-13.174-15.922ZM25.5 41.42V25.5h13.174c-1.686 9.917-9.476 14.351-13.174 15.92Z" fill="#BD0300"/></svg><svg fill="none" viewBox="0 0 32 32" id="icon-slide-next" xmlns="http://www.w3.org/2000/svg"><rect width="32" height="32" rx="16" fill="#fff" fill-opacity=".3"/><path d="m19.773 16.398-5.625 5.625a.56.56 0 0 1-.796 0 .562.562 0 0 1 0-.796L18.58 16l-5.228-5.227a.563.563 0 0 1 .796-.796l5.625 5.625a.562.562 0 0 1 0 .796Z" fill="#343330"/></svg><svg fill="none" viewBox="0 0 32 32" id="icon-slide-prev" xmlns="http://www.w3.org/2000/svg"><rect width="32" height="32" rx="16" transform="matrix(-1 0 0 1 32 0)" fill="#fff" fill-opacity=".3"/><path d="m12.227 16.398 5.625 5.625a.56.56 0 0 0 .796 0 .562.562 0 0 0 0-.796L13.42 16l5.228-5.227a.563.563 0 0 0-.796-.796l-5.625 5.625a.562.562 0 0 0 0 .796Z" fill="#343330"/></svg><svg fill="none" viewBox="0 0 37 23" id="icon-up" xmlns="http://www.w3.org/2000/svg"><path d="m4.395 21.933 13.943-14.97 14.038 15.072c.22.238.483.428.772.557a2.23 2.23 0 0 0 1.823 0 2.37 2.37 0 0 0 .772-.557 2.59 2.59 0 0 0 .52-.829 2.71 2.71 0 0 0 0-1.958 2.564 2.564 0 0 0-.52-.829L20.021 1.541a2.369 2.369 0 0 0-.771-.558 2.231 2.231 0 0 0-1.824 0 2.37 2.37 0 0 0-.772.558L15.09 3.348 1.146 18.318a2.564 2.564 0 0 0-.52.828 2.71 2.71 0 0 0 0 1.958c.121.31.298.592.52.829.44.444 1.02.69 1.624.69.604 0 1.185-.246 1.625-.69Z" fill="currentColor"/></svg><svg fill="none" viewBox="0 0 24 24" id="telegram" xmlns="http://www.w3.org/2000/svg"><g clip-path="url(#na)"><path d="M12 23.429c6.312 0 11.428-5.117 11.428-11.429S18.312.571 12 .571C5.688.571.57 5.688.57 12S5.688 23.429 12 23.429Z" fill="#039BE5"/><path d="M5.727 11.675 16.876 7.48c.517-.182.97.123.801.887l.001-.001-1.898 8.727c-.14.62-.517.77-1.044.478l-2.891-2.079-1.395 1.31c-.154.151-.284.278-.582.278l.205-2.87 5.357-4.724c.234-.2-.052-.313-.359-.114l-6.62 4.068-2.855-.869c-.62-.192-.633-.604.131-.896Z" fill="#fff"/></g><defs><clipPath id="na"><path fill="#fff" d="M0 0h24v24H0z"/></clipPath></defs></svg><svg fill="none" viewBox="0 0 24 24" id="viber" xmlns="http://www.w3.org/2000/svg"><g clip-path="url(#oa)"><ellipse cx="12" cy="10.875" rx="9" ry="8.625" fill="#fff"/><path d="M14.4 0H9.6C4.967 0 1.2 3.768 1.2 8.4V12A8.404 8.404 0 0 0 6 19.594v4.01c0 .349.434.529.68.283l3.486-3.483H14.4c4.632 0 8.4-3.768 8.4-8.404V8.4c0-4.632-3.768-8.4-8.4-8.4Zm3.144 15.745-1.215 1.188c-1.278 1.25-4.614-.177-7.555-3.18-2.94-3.006-4.23-6.372-3.015-7.623l1.215-1.19c.447-.438 1.206-.429 1.707.018l1.753 1.792c.624.639.36 1.71-.465 1.956-.57.183-.958.81-.774 1.38.303 1.332 1.992 2.997 3.252 3.327.567.132 1.203-.177 1.4-.744.262-.82 1.339-1.062 1.966-.42l1.749 1.788c.438.447.432 1.206-.018 1.707ZM13.092 5.7c-.12 0-.24.006-.357.021a.4.4 0 0 1-.087-.795 4.004 4.004 0 0 1 4.42 4.42.404.404 0 0 1-.442.353.404.404 0 0 1-.354-.44 3.206 3.206 0 0 0-3.18-3.558Zm2.4 3.201a.403.403 0 0 1-.402.4.403.403 0 0 1-.4-.4 1.6 1.6 0 0 0-1.598-1.599.401.401 0 1 1 0-.801c1.323 0 2.4 1.077 2.4 2.4Zm3.05 1.293a.408.408 0 0 1-.494.294.407.407 0 0 1-.285-.48 4.807 4.807 0 0 0-5.043-5.892.4.4 0 0 1-.06-.798 5.61 5.61 0 0 1 5.883 6.876Z" fill="#665CAC"/></g><defs><clipPath id="oa"><path fill="#fff" d="M0 0h24v24H0z"/></clipPath></defs></svg><svg fill="none" viewBox="0 0 36 36" id="vk" xmlns="http://www.w3.org/2000/svg"><path d="M0 17.28C0 9.134 0 5.061 2.53 2.53 5.062 0 9.135 0 17.28 0h1.44c8.146 0 12.219 0 14.75 2.53C36 5.062 36 9.135 36 17.28v1.44c0 8.146 0 12.219-2.53 14.75C30.938 36 26.865 36 18.72 36h-1.44c-8.146 0-12.219 0-14.75-2.53C0 30.938 0 26.865 0 18.72v-1.44Z" fill="#0379E5"/><path d="M19.072 26C10.872 26 6.195 20.37 6 11h4.107c.135 6.877 3.163 9.79 5.562 10.39V11h3.868v5.93c2.368-.254 4.856-2.957 5.696-5.93H29.1c-.644 3.664-3.343 6.366-5.261 7.477C25.758 19.378 28.83 21.736 30 26h-4.258c-.914-2.853-3.192-5.06-6.205-5.36V26h-.465Z" fill="#fff"/></svg><svg fill="none" viewBox="0 0 24 24" id="whatsapp" xmlns="http://www.w3.org/2000/svg"><path d="M12.002.572h-.005C6.011.572 1.143 5.44 1.143 11.429c0 2.375.765 4.576 2.067 6.363l-1.354 4.034 4.174-1.334a10.763 10.763 0 0 0 5.972 1.794c5.987 0 10.855-4.871 10.855-10.857 0-5.987-4.868-10.857-10.855-10.857Z" fill="#4CAF50"/><path d="M18.062 15.61c-.257.707-1.273 1.293-2.084 1.464-.554.115-1.279.207-3.718-.78-3.12-1.262-5.128-4.358-5.285-4.559-.15-.2-1.26-1.639-1.26-3.126 0-1.488.773-2.212 1.085-2.523.256-.255.68-.372 1.086-.372.131 0 .25.007.355.012.312.013.469.031.674.512.256.602.88 2.09.954 2.243.076.152.152.36.045.56-.1.208-.187.3-.343.476-.157.176-.305.311-.462.5-.143.165-.305.341-.125.646.18.298.804 1.291 1.723 2.09 1.184 1.03 2.145 1.359 2.489 1.499.256.103.561.079.748-.116.238-.25.531-.664.83-1.072.212-.293.48-.33.761-.226.287.097 1.803.83 2.115.98.312.154.518.226.593.355.075.128.075.73-.181 1.438Z" fill="#FAFAFA"/></svg></svg>